<svg xmlns="http://www.w3.org/2000/svg" width="15" height="15" fill="none" viewBox="0 0 16 16"><path fill="#ffffff" d="M5.333 11.167a.5.5 0 100-1v1zM2.666 9.333h-.5.5zM4 2.667v-.5.5zm5.333 0v-.5.5zm.833 2.666a.5.5 0 001 0h-1zm-.833 8.5a.5.5 0 100-1v1zm-4-1.833h-.5.5zm1.333-6.667v-.5.5zm6.167 4a.5.5 0 101 0h-1zm-7.5.834H4v1h1.333v-1zm-1.333 0a.833.833 0 01-.59-.244l-.707.707c.344.344.81.537 1.297.537v-1zm-.59-.244a.833.833 0 01-.244-.59h-1c0 .487.194.953.537 1.297l.708-.707zm-.244-.59V4h-1v5.333h1zm0-5.333c0-.22.088-.433.245-.59l-.708-.706c-.343.344-.536.81-.536 1.296h1zm.245-.59A.833.833 0 014 3.168v-1c-.486 0-.953.193-1.297.537l.708.707zM4 3.168h5.333v-1H4v1zm5.333 0c.221 0 .433.088.59.244l.707-.707a1.833 1.833 0 00-1.297-.537v1zm.59.244a.833.833 0 01.243.59h1c0-.487-.193-.953-.537-1.297l-.707.707zm.243.59v1.332h1V4h-1zm-.833 8.832H6.666v1h2.667v-1zm-2.667 0a.833.833 0 01-.589-.244l-.707.707c.344.344.81.537 1.296.537v-1zm-.589-.244A.833.833 0 015.833 12h-1c0 .486.193.953.537 1.296l.707-.707zM5.833 12V6.667h-1V12h1zm0-5.333c0-.221.088-.433.244-.59L5.37 5.37c-.344.344-.537.81-.537 1.297h1zm.244-.59a.833.833 0 01.59-.244v-1c-.487 0-.953.194-1.297.537l.707.707zm.59-.244H12v-1H6.667v1zm5.333 0c.22 0 .433.088.59.244l.706-.707A1.833 1.833 0 0012 4.833v1zm.59.244a.833.833 0 01.243.59h1c0-.486-.193-.953-.537-1.297l-.707.707zm.243.59v2.666h1V6.667h-1zm0 0V12h1V6.667h-1zM12 12.833H6.667v1H12v-1zm-5.333 0A.833.833 0 015.833 12h-1c0 1.013.821 1.833 1.833 1.833v-1zM12.832 12c0 .46-.373.833-.833.833v1c1.012 0 1.833-.82 1.833-1.833h-1zM12 5.833c.46 0 .833.374.833.834h1c0-1.013-.82-1.834-1.833-1.834v1zm-5.333-1c-1.013 0-1.834.821-1.834 1.834h1c0-.46.373-.834.833-.834v-1z"></path></svg>