<svg width="18" height="18" viewBox="0 0 50 50" fill="none" xmlns="http://www.w3.org/2000/svg">
<path d="M42.1712 7.14289H39.071C39.0064 7.14289 38.949 7.16508 38.8889 7.17961V3.92406C38.8889 1.76016 37.0884 0 34.8749 0H7.98225C5.76873 0 3.96826 1.76016 3.96826 3.92406V40.5204C3.96826 42.6843 5.76873 44.4445 7.98225 44.4445H12.6984V46.2162C12.6984 48.3027 14.4299 50 16.559 50H42.1712C44.3003 50 46.0318 48.3027 46.0318 46.2162V10.9266C46.0318 8.84023 44.3003 7.14289 42.1712 7.14289ZM5.55553 40.5204V3.92406C5.55553 2.63594 6.64451 1.58734 7.98225 1.58734H34.8749C36.2126 1.58734 37.3016 2.63594 37.3016 3.92406V40.5204C37.3016 41.8085 36.2126 42.8572 34.8749 42.8572H7.98225C6.64451 42.8572 5.55553 41.8085 5.55553 40.5204ZM44.4444 46.2162C44.4444 47.4277 43.4245 48.4127 42.1712 48.4127H16.559C15.3057 48.4127 14.2857 47.4277 14.2857 46.2162V44.4445H34.8749C37.0884 44.4445 38.8889 42.6843 38.8889 40.5204V8.69344C38.949 8.70797 39.0064 8.73016 39.071 8.73016H42.1712C43.4245 8.73016 44.4444 9.71523 44.4444 10.9266V46.2162Z" fill="white"/>
</svg>
