<svg width="38" height="38" viewBox="0 0 40 40" fill="none" xmlns="http://www.w3.org/2000/svg">
<circle cx="20" cy="20" r="20" fill="black"/>
<path d="M28.1774 11.404C26.5591 10.6468 24.8287 10.0965 23.0197 9.7832C22.7975 10.1849 22.538 10.7251 22.359 11.1549C20.4359 10.8657 18.5306 10.8657 16.6429 11.1549C16.4639 10.7251 16.1985 10.1849 15.9743 9.7832C14.1633 10.0965 12.431 10.6488 10.8127 11.408C7.54859 16.3405 6.66374 21.1505 7.10616 25.8922C9.2711 27.5089 11.3692 28.491 13.4318 29.1337C13.9411 28.4327 14.3953 27.6876 14.7866 26.9024C14.0414 26.6192 13.3276 26.2697 12.6532 25.8641C12.8321 25.7315 13.0071 25.5929 13.1762 25.4503C17.2898 27.3743 21.7593 27.3743 25.8237 25.4503C25.9948 25.5929 26.1697 25.7315 26.3467 25.8641C25.6703 26.2717 24.9546 26.6212 24.2093 26.9044C24.6006 27.6876 25.0529 28.4348 25.5641 29.1356C27.6288 28.493 29.7288 27.5109 31.8937 25.8922C32.4129 20.3953 31.0069 15.6295 28.1774 11.404ZM15.3471 22.9761C14.1122 22.9761 13.0995 21.8233 13.0995 20.4194C13.0995 19.0156 14.0906 17.8608 15.3471 17.8608C16.6036 17.8608 17.6162 19.0136 17.5946 20.4194C17.5965 21.8233 16.6036 22.9761 15.3471 22.9761ZM23.6529 22.9761C22.418 22.9761 21.4053 21.8233 21.4053 20.4194C21.4053 19.0156 22.3963 17.8608 23.6529 17.8608C24.9093 17.8608 25.922 19.0136 25.9004 20.4194C25.9004 21.8233 24.9093 22.9761 23.6529 22.9761Z" fill="white"/>
</svg>
