<svg width="38" height="38" viewBox="0 0 40 40" fill="none" xmlns="http://www.w3.org/2000/svg">
<g clip-path="url(#clip0_95_5)">
<path d="M19.9227 0C8.92109 0 0 9.16893 0 20.4797C0 29.5283 5.70844 37.2049 13.6244 39.913C14.62 40.1025 14.9856 39.4687 14.9856 38.9277C14.9856 38.4395 14.967 36.826 14.9586 35.1148C9.41594 36.3537 8.24641 32.6985 8.24641 32.6985C7.34016 30.3313 6.03437 29.702 6.03437 29.702C4.22687 28.4308 6.17063 28.4568 6.17063 28.4568C8.17125 28.6014 9.22469 30.5674 9.22469 30.5674C11.0016 33.6983 13.8853 32.7931 15.0222 32.2699C15.2009 30.9461 15.7173 30.0428 16.287 29.5314C11.862 29.0134 7.21016 27.2573 7.21016 19.4101C7.21016 17.1743 7.98844 15.3473 9.26297 13.9131C9.05609 13.3972 8.37422 11.3143 9.45594 8.49336C9.45594 8.49336 11.1289 7.94292 14.9361 10.5927C16.5252 10.1387 18.2295 9.91131 19.9227 9.9036C21.6158 9.91131 23.3214 10.1387 24.9136 10.5927C28.7163 7.94292 30.3869 8.49336 30.3869 8.49336C31.4712 11.3143 30.7891 13.3972 30.5822 13.9131C31.8595 15.3473 32.6325 17.1742 32.6325 19.4101C32.6325 27.276 27.9719 29.0081 23.5356 29.515C24.2502 30.1506 24.8869 31.397 24.8869 33.3075C24.8869 36.0477 24.8638 38.2531 24.8638 38.9277C24.8638 39.4727 25.2223 40.1113 26.2323 39.9102C34.1439 37.1992 39.8452 29.5253 39.8452 20.4797C39.8452 9.16893 30.9253 0 19.9227 0Z" fill="#161614"/>
<path d="M7.46182 29.1739C7.41807 29.2756 7.26214 29.3061 7.12042 29.2364C6.97589 29.1696 6.89464 29.0308 6.94151 28.9287C6.98448 28.824 7.14042 28.7947 7.28464 28.8651C7.42948 28.9317 7.51198 29.0718 7.46182 29.1739ZM8.44182 30.0728C8.34682 30.1634 8.16104 30.1213 8.03495 29.9782C7.90464 29.8354 7.88026 29.6446 7.97667 29.5525C8.07464 29.4621 8.25479 29.5043 8.38542 29.6473C8.51573 29.7917 8.54104 29.9814 8.44167 30.0729M9.11417 31.2228C8.99198 31.31 8.79229 31.2283 8.66901 31.0461C8.54698 30.8641 8.54698 30.6457 8.67167 30.5582C8.79542 30.4706 8.99198 30.5493 9.11698 30.73C9.23886 30.9152 9.23886 31.1337 9.11401 31.223M10.251 32.5548C10.1418 32.6785 9.90932 32.6454 9.73901 32.4764C9.56495 32.3113 9.51636 32.077 9.62589 31.9531C9.73636 31.8291 9.97026 31.864 10.1418 32.0315C10.3148 32.1963 10.3675 32.4324 10.251 32.5548ZM11.7204 33.0045C11.6725 33.1648 11.4484 33.2378 11.2228 33.1697C10.9974 33.0995 10.85 32.9115 10.8954 32.7495C10.9423 32.5881 11.1673 32.5121 11.3946 32.585C11.6196 32.6549 11.7673 32.8414 11.7204 33.0045ZM13.3929 33.1952C13.3985 33.3642 13.2071 33.5042 12.9703 33.5073C12.732 33.5126 12.5393 33.3759 12.5368 33.2098C12.5368 33.0392 12.7239 32.9005 12.962 32.8964C13.1989 32.8916 13.3929 33.0273 13.3929 33.1952ZM15.0357 33.1305C15.0642 33.2953 14.8995 33.4646 14.6643 33.5095C14.4331 33.5529 14.219 33.4512 14.1895 33.2879C14.1607 33.1189 14.3285 32.9498 14.5593 32.9059C14.795 32.8638 15.0057 32.9629 15.0357 33.1305Z" fill="#161614"/>
</g>
<defs>
<clipPath id="clip0_95_5">
<rect width="40" height="40" fill="white"/>
</clipPath>
</defs>
</svg>
