<svg width="50" height="50" viewBox="0 0 50 50" fill="none" xmlns="http://www.w3.org/2000/svg">
<circle cx="25" cy="25" r="22.5" stroke="white" stroke-width="5"/>
<path d="M18.9432 15.5455V33H16.8295V17.7614H16.7273L12.4659 20.5909V18.4432L16.8295 15.5455H18.9432ZM29.6562 33.2386C28.3722 33.2386 27.2784 32.8892 26.375 32.1903C25.4716 31.4858 24.7813 30.4659 24.304 29.1307C23.8267 27.7898 23.5881 26.1705 23.5881 24.2727C23.5881 22.3864 23.8267 20.7756 24.304 19.4403C24.7869 18.0994 25.4801 17.0767 26.3835 16.3722C27.2926 15.6619 28.3835 15.3068 29.6562 15.3068C30.929 15.3068 32.017 15.6619 32.9205 16.3722C33.8295 17.0767 34.5227 18.0994 35 19.4403C35.483 20.7756 35.7244 22.3864 35.7244 24.2727C35.7244 26.1705 35.4858 27.7898 35.0085 29.1307C34.5312 30.4659 33.8409 31.4858 32.9375 32.1903C32.0341 32.8892 30.9403 33.2386 29.6562 33.2386ZM29.6562 31.3636C30.929 31.3636 31.9176 30.75 32.6222 29.5227C33.3267 28.2955 33.679 26.5455 33.679 24.2727C33.679 22.7614 33.517 21.4744 33.1932 20.4119C32.875 19.3494 32.4148 18.5398 31.8125 17.983C31.2159 17.4261 30.4972 17.1477 29.6562 17.1477C28.3949 17.1477 27.4091 17.7699 26.6989 19.0142C25.9886 20.2528 25.6335 22.0057 25.6335 24.2727C25.6335 25.7841 25.7926 27.0682 26.1108 28.125C26.429 29.1818 26.8864 29.9858 27.483 30.5369C28.0852 31.0881 28.8097 31.3636 29.6562 31.3636Z" fill="white"/>
</svg>
