<svg width="1em" height="1em" viewBox="0 0 12 12" fill="none" xmlns="http://www.w3.org/2000/svg">
<path fill-rule="evenodd" clip-rule="evenodd" d="M3.00005 4.19995V5.39995C2.68179 5.39995 2.37656 5.52638 2.15152 5.75142C1.92648 5.97647 1.80005 6.28169 1.80005 6.59995V9.59995C1.80005 9.91821 1.92648 10.2234 2.15152 10.4485C2.37656 10.6735 2.68179 10.8 3.00005 10.8H9.00005C9.31831 10.8 9.62353 10.6735 9.84858 10.4485C10.0736 10.2234 10.2 9.91821 10.2 9.59995V6.59995C10.2 6.28169 10.0736 5.97647 9.84858 5.75142C9.62353 5.52638 9.31831 5.39995 9.00005 5.39995H7.80005H4.20005V4.19995C4.20005 3.72256 4.38969 3.26472 4.72726 2.92716C5.06482 2.58959 5.52266 2.39995 6.00005 2.39995C6.47744 2.39995 6.93528 2.58959 7.27284 2.92716L8.12137 2.07863C7.55876 1.51602 6.7957 1.19995 6.00005 1.19995C5.2044 1.19995 4.44134 1.51602 3.87873 2.07863C3.31612 2.64124 3.00005 3.4043 3.00005 4.19995Z" fill="#f45b5b"/>
</svg>
