<svg width="38" height="38" viewBox="0 0 40 40" fill="none" xmlns="http://www.w3.org/2000/svg">
<circle cx="20" cy="20" r="20" fill="black"/>
<path fill-rule="evenodd" clip-rule="evenodd" d="M10.1225 10.1707C10.1898 10.2646 11.7498 12.4824 13.5892 15.0991C15.4286 17.7159 17.1298 20.1358 17.3697 20.4768C17.6097 20.8177 17.806 21.1035 17.806 21.1119C17.806 21.1203 17.7166 21.2279 17.6074 21.351C17.4982 21.4741 17.1907 21.8227 16.924 22.1255C16.6572 22.4284 16.2076 22.9389 15.9248 23.2599C15.642 23.5809 15.1445 24.1459 14.8192 24.5154C14.4939 24.8849 13.9089 25.5492 13.5193 25.9916C12.3141 27.36 12.1402 27.5577 11.2227 28.6013C10.7329 29.1586 10.2631 29.6914 10.1789 29.7854C10.0946 29.8793 10.0257 29.9661 10.0257 29.9781C10.0257 29.9922 10.3334 30 10.8926 30H11.7595L12.7125 28.9152C13.2367 28.3185 13.7538 27.7313 13.8616 27.6101C14.0947 27.3482 15.8724 25.3279 16.0219 25.1551C16.0791 25.0889 16.1622 24.9948 16.2066 24.9458C16.2509 24.8969 16.6007 24.5 16.9838 24.0639C17.3669 23.6278 17.6909 23.2602 17.7037 23.2472C17.7165 23.2341 17.9193 23.0037 18.1544 22.7351C18.3894 22.4665 18.589 22.2467 18.5978 22.2467C18.6067 22.2467 19.814 23.954 21.2808 26.0407C22.7476 28.1275 23.9739 29.8718 24.0059 29.9169L24.0641 29.9991L27.0377 29.9995C29.483 29.9999 30.0092 29.9949 29.9999 29.9711C29.99 29.9458 28.5653 27.9161 24.9103 22.7203C22.2791 18.9798 21.9293 18.4772 21.9393 18.4517C21.9491 18.4269 22.3074 18.0175 24.6636 15.3396C25.0678 14.8802 25.6249 14.2467 25.9017 13.9317C26.1785 13.6167 26.4579 13.2996 26.5227 13.2269C26.5875 13.1542 26.928 12.7676 27.2795 12.3678C27.631 11.9681 28.2285 11.2888 28.6073 10.8583C28.9861 10.4278 29.31 10.0586 29.327 10.0378C29.3561 10.0022 29.3066 10 28.4774 10H27.5969L27.2052 10.446C26.684 11.0396 25.7418 12.1101 25.4742 12.4126C25.356 12.5463 25.2086 12.7142 25.1465 12.7859C25.0845 12.8575 24.9622 12.9959 24.8746 13.0935C24.7871 13.1911 24.346 13.6922 23.8944 14.207C23.4429 14.7219 23.0672 15.1481 23.0596 15.1542C23.0521 15.1602 22.9553 15.2699 22.8446 15.3978C22.651 15.6216 22.4539 15.8456 21.5502 16.8693C21.1535 17.3186 21.1331 17.3379 21.0997 17.2966C21.0805 17.2728 19.9179 15.6214 18.5164 13.6269L15.968 10.0005L12.984 10.0002L10 10L10.1225 10.1707ZM12.4514 11.36C12.4738 11.3934 13.0314 12.174 13.6904 13.0947C14.9403 14.8409 19.8518 21.7067 23.0105 26.1233C24.0198 27.5347 24.858 28.7019 24.8731 28.7171C24.8946 28.7389 25.1885 28.7436 26.2463 28.7392L27.5922 28.7335L24.0703 23.8106C22.1332 21.103 19.3287 17.1828 17.838 15.0991L15.1276 11.3106L13.7691 11.3049L12.4107 11.2992L12.4514 11.36Z" fill="white"/>
</svg>
