<svg width="420" height="420" viewBox="0 0 490 490" fill="none" xmlns="http://www.w3.org/2000/svg">
<path d="M173.068 460.208C162.386 456.092 156.702 452.172 149.646 444.038C143.57 437.08 140.14 430.71 137.69 421.694C136.71 418.264 135.534 415.52 135.142 415.52C134.652 415.52 133.672 416.99 132.986 418.656L131.712 421.89L130.438 418.46C129.654 416.5 128.87 408.856 128.674 400.722C128.184 388.276 128.38 385.434 130.242 378.28C133.868 364.364 136.024 359.072 140.63 352.506C150.43 338.394 153.958 327.32 153.762 310.856L153.566 301.35L152.782 309.288C150.528 333.298 141.904 350.938 129.85 356.622C123.578 359.562 122.892 359.17 126.91 355.054C134.064 347.508 142.1 331.828 144.55 320.46C148.274 303.31 145.922 283.122 138.572 269.696C136.612 266.07 134.456 261.954 133.672 260.582C131.712 256.858 125.832 250.88 124.166 250.88C123.48 250.88 120.638 251.566 117.992 252.448C115.346 253.232 107.506 254.702 100.45 255.682L87.71 257.348L87.808 270.088C87.906 279.202 88.494 285.278 90.062 291.746C92.904 304.192 92.904 304.192 88.984 302.232C79.38 297.43 73.99 293.216 68.6 286.454C58.996 274.498 54.488 265.188 51.45 250.684C49.588 241.57 49.588 218.736 51.45 208.152C54.88 188.748 66.248 167.972 81.34 153.468L88.396 146.608L88.69 136.808C88.984 124.362 92.022 111.622 96.726 102.606L100.352 95.7461L101.43 101.038C102.018 104.37 102.9 106.33 103.782 106.33C104.468 106.33 106.918 103.39 109.172 99.7641C113.092 93.2961 143.374 61.446 144.55 62.524C144.844 62.818 145.04 63.896 145.04 64.876C145.04 66.934 146.902 67.228 149.156 65.464C151.998 63.112 167.188 45.57 170.128 41.16C173.068 36.848 177.674 27.734 178.752 24.304C180.222 19.306 184.142 26.95 185.318 37.142C185.808 41.062 186.298 44.59 186.592 44.786C186.788 44.982 189.728 43.806 193.06 42.14C202.37 37.436 212.954 33.81 228.928 29.89C244.51 26.068 252.938 23.03 257.936 19.502L260.974 17.248L260.386 20.482C259.994 22.246 258.622 25.872 257.25 28.616C255.878 31.262 254.8 33.908 254.8 34.398C254.8 36.456 313.992 35.084 322.812 32.83C325.458 32.144 325.556 32.144 324.38 34.398C321.734 39.298 314.286 45.962 309.092 48.118C306.152 49.392 303.8 50.666 303.8 51.156C303.8 52.822 310.856 55.37 331.73 61.152C343.98 64.582 366.912 69.58 370.146 69.58C371.714 69.58 373.478 69.972 374.262 70.462C376.124 71.6381 369.362 76.44 359.464 81.1441C355.25 83.1041 351.82 85.1621 351.82 85.7501C351.82 86.3381 352.996 87.7101 354.564 88.7881C357.798 91.2381 375.242 101.234 385.042 106.33C393.078 110.544 392.784 111.426 383.67 111.72C374.066 112.014 374.066 112.406 383.572 121.618C392.686 130.34 401.212 136.808 409.15 140.826L413.952 143.276L411.404 145.53C408.758 147.784 401.212 149.94 395.92 149.94C394.254 149.94 392.98 150.43 392.98 151.018C392.98 152.292 405.23 164.052 412.188 169.54C417.676 173.852 425.908 177.086 433.846 178.066C436.786 178.36 439.334 178.948 439.53 179.438C440.314 180.516 434.532 184.632 428.26 187.572C422.086 190.512 415.716 190.806 407.68 188.748C404.74 187.964 402.094 187.572 401.898 187.768C401.702 187.964 404.544 191.394 408.268 195.314C412.09 199.136 416.402 204.134 417.97 206.29C419.538 208.446 425.908 215.894 432.082 222.754C440.706 232.456 442.96 235.592 441.882 236.278C439.824 237.552 426.594 237.258 419.44 235.69C408.17 233.24 407.68 233.632 413.168 241.178C417.97 247.744 423.164 258.72 424.83 265.972C425.614 269.206 426.496 276.556 426.888 282.24L427.476 292.53L423.164 288.414C420.812 286.062 418.166 284.2 417.186 284.2C416.304 284.2 415.52 284.396 415.52 284.592C415.52 284.69 415.03 290.472 414.54 297.43C412.874 317.618 409.64 329.574 403.074 339.864C399.546 345.548 392.588 352.898 389.06 354.76C387.002 355.838 386.904 355.74 387.492 354.172C389.452 348.978 390.236 337.218 389.158 329.182C387.982 321.244 386.806 317.52 385.728 318.598C385.434 318.794 384.552 322.42 383.67 326.634C381.416 337.708 376.026 352.212 371.812 358.484C369.852 361.62 364.168 368.088 359.17 372.988C345.254 386.708 334.474 391.608 313.404 393.47C307.23 394.058 306.838 394.254 304.192 397.978C298.998 405.622 291.158 411.012 282.436 413.266C279.79 413.854 279.79 413.854 283.416 409.542C288.316 403.466 292.922 394.352 293.51 389.06L294.098 384.65L290.864 388.472C282.044 398.86 272.244 408.268 266.07 412.09C258.524 416.794 241.962 424.242 220.304 432.67C212.562 435.708 203.252 439.628 199.43 441.49C191.884 445.116 181.3 453.054 181.3 455.014C181.3 455.7 182.672 457.562 184.24 459.13C185.906 460.698 187.18 462.266 187.18 462.756C187.18 464.422 181.496 463.344 173.068 460.208ZM178.654 449.134C182.084 445.998 190.806 439.922 198.058 435.61C225.988 419.048 235.2 412.482 249.214 398.958C254.8 393.568 256.368 391.02 253.134 392.882C252.154 393.372 246.96 397.88 241.57 402.78C231.28 412.09 227.164 415.128 213.64 423.066C209.034 425.81 200.018 431.102 193.55 434.924C186.788 438.942 179.732 443.94 176.89 446.782C174.244 449.526 171.5 451.78 170.912 451.78C168.364 451.78 154.154 437.178 151.116 431.396C147.49 424.634 144.648 413.364 145.432 409.15C146.118 405.23 152.39 385.042 161.798 356.328C166.012 343.392 169.246 332.612 169.05 332.416C168.07 331.436 163.366 343.882 154.252 371.224C142.492 406.602 141.904 409.346 143.08 417.578C144.354 425.614 149.646 436.394 155.526 442.96C160.132 448.056 168.952 454.72 171.206 454.72C171.892 454.72 175.224 452.172 178.654 449.134ZM136.612 393.568C139.356 385.826 139.846 383.082 138.18 384.748C136.122 386.806 132.202 400.82 133.672 400.82C133.868 400.82 135.142 397.586 136.612 393.568ZM228.536 389.06C237.062 375.83 247.646 344.862 246.764 335.748C246.568 333.494 245.882 335.16 244.118 342.02C241.374 352.8 234.906 372.106 231.966 377.79C230.888 379.946 227.654 385.63 224.812 390.334C221.872 395.136 219.52 399.252 219.52 399.546C219.52 401.114 224.322 395.626 228.536 389.06ZM345.548 347.41C349.86 338.002 350.84 332.318 350.84 317.226C350.84 304.094 349.958 295.862 347.998 290.668C346.332 286.356 345.842 288.12 347.018 294.098C347.508 297.038 347.998 306.446 347.998 315.07C348.096 329.378 347.802 331.436 345.45 339.08C343.98 343.686 341.334 350.154 339.472 353.584C337.61 356.916 336.14 360.444 336.14 361.326C336.14 363.776 342.02 355.152 345.548 347.41ZM180.222 341.236C184.632 327.418 186.102 319.676 186.788 306.25C187.572 290.864 186.298 282.142 181.79 272.734C179.928 268.618 178.066 265.58 177.772 265.874C177.478 266.168 178.654 270.48 180.418 275.576C183.358 284.2 183.554 285.376 183.554 299.39C183.554 315.07 181.986 326.732 177.772 341.824C175.224 351.33 175.028 352.212 176.302 351.428C176.792 351.134 178.556 346.528 180.222 341.236ZM226.87 339.864C232.946 327.32 235.2 317.716 235.2 304.78C235.2 288.022 232.26 280.476 221.382 269.304C213.836 261.562 211.19 261.464 217.07 269.206C230.3 286.454 232.946 313.796 223.93 338.786C220.01 349.37 220.206 348.88 221.48 348.88C221.97 348.88 224.42 344.764 226.87 339.864ZM253.918 335.944C255.682 328.202 255.584 304.388 253.82 296.94C251.468 286.65 245.49 275.87 235.69 264.11C232.75 260.582 231.378 261.464 233.828 265.384C250.096 290.864 252.154 297.528 251.664 323.89C251.468 333.886 251.664 342.02 251.958 342.02C252.35 342.02 253.232 339.276 253.918 335.944ZM281.064 320.558C280.574 308.308 280.182 305.172 277.83 298.508C274.988 290.178 271.264 283.22 270.676 284.984C270.48 285.572 271.264 287.826 272.44 290.08C276.164 297.43 278.222 308.112 278.908 323.596C279.398 333.886 279.888 337.806 280.574 336.532C281.162 335.552 281.358 328.986 281.064 320.558ZM367.304 298.704C367.01 291.746 366.324 287.63 365.148 285.376C364.168 283.514 363.286 282.24 363.09 282.436C362.894 282.632 363.384 285.572 364.07 289.1C364.854 292.628 365.442 298.41 365.54 302.134C365.54 306.348 365.932 308.7 366.618 308.7C367.402 308.7 367.598 305.76 367.304 298.704ZM219.128 280.672C216.384 274.596 208.446 266.364 202.076 262.836C199.822 261.562 197.96 260.876 197.96 261.366C197.96 261.758 201.096 265.286 204.918 269.01C211.778 275.772 216.188 283.024 217.952 290.57C218.344 292.236 219.128 295.274 219.814 297.43C220.99 301.35 220.99 301.35 221.284 293.706C221.48 287.238 221.186 285.18 219.128 280.672ZM313.6 270.97C312.522 266.364 310.072 259.112 308.21 254.996C306.25 250.88 305.074 247.94 305.662 248.43C307.622 250.488 314.58 265.188 315.168 268.52C316.05 274.106 316.442 274.89 317.716 273.616C319.284 272.048 316.834 247.842 314.286 241.178C308.406 225.204 296.548 211.386 281.358 202.762C278.516 201.096 276.36 199.626 276.556 199.332C276.85 199.136 280.476 199.822 284.788 200.9C306.74 206.486 325.556 216.874 339.08 230.692C347.018 238.826 347.606 235.984 341.04 221.97C336.238 211.876 330.162 205.016 320.166 198.94C310.17 192.766 311.836 192.668 323.694 198.548C335.944 204.722 347.508 213.15 358.778 224.126C368.284 233.338 371.714 235.494 369.264 230.888C366.912 226.478 353.682 211.876 343.49 202.37C334.964 194.53 331.73 192.178 323.204 188.16C312.914 183.162 313.894 182.574 325.262 186.788C332.024 189.336 340.158 193.648 346.626 198.254C348.978 199.92 351.134 200.998 351.428 200.704C352.31 199.724 347.508 192.864 341.53 186.396C335.748 180.124 327.614 174.538 321.146 172.48C319.088 171.892 317.618 171.108 317.814 170.912C318.696 170.03 334.866 175.714 342.51 179.536C352.996 184.828 370.342 196.392 378.77 203.742C390.04 213.64 389.746 210.896 378.084 198.842C366.814 187.18 354.564 177.968 342.804 172.284C337.022 169.54 332.416 167.09 332.612 166.894C332.71 166.698 335.356 167.482 338.394 168.462C341.53 169.54 343.98 170.03 343.98 169.54C343.98 166.012 322.028 154.35 303.996 148.274C297.92 146.216 293.314 144.452 293.902 144.256C295.96 143.57 312.62 147.294 323.4 150.822C336.434 155.134 347.606 160.524 357.308 167.188C361.032 169.736 365.834 173.068 368.088 174.538C370.244 176.008 374.85 179.732 378.28 182.868C381.808 186.004 384.748 187.964 384.944 187.278C385.434 185.808 379.26 178.948 367.598 168.168C356.426 157.878 350.056 153.566 335.65 146.314C321.342 139.16 326.438 140.63 342.51 148.274C349.762 151.704 358.68 156.996 363.384 160.524C377.398 171.01 376.712 167.972 360.836 148.862C352.212 138.376 342.706 131.124 325.85 122.01C317.422 117.404 303.8 111.72 301.056 111.72C300.174 111.622 298.116 111.034 296.45 110.25C293.706 108.878 293.902 108.78 300.37 109.368C310.66 110.25 324.772 113.19 334.67 116.62C344.862 120.148 369.95 132.202 376.026 136.514C380.338 139.552 383.082 139.552 379.652 136.416C373.478 130.83 359.856 121.52 350.35 116.424C346.626 114.366 344.078 112.7 344.862 112.7C346.528 112.7 363.09 121.52 370.244 126.224C373.086 128.086 375.634 129.36 375.928 129.066C377.202 127.792 370.832 118.776 363.776 111.916C357.504 105.742 354.662 103.782 343.588 98.4901C336.532 94.962 330.946 92.2181 331.24 92.1201C331.534 92.1201 334.18 92.8061 337.12 93.5901C343.588 95.3541 343 95.2561 343 94.0801C343 93.5901 340.256 91.336 336.924 89.18C331.044 85.358 330.946 85.2601 333.984 85.2601C337.904 85.2601 338.296 82.6141 334.474 81.6341L331.73 81.0461L334.18 80.2621C335.552 79.8701 339.178 78.7921 342.314 77.9101C345.45 77.0281 347.704 76.048 347.508 75.558C347.214 75.166 343.294 73.794 338.884 72.52C334.376 71.344 324.086 68.208 315.854 65.562C293.412 58.408 287.434 57.428 270.578 58.114C262.738 58.506 254.996 58.996 253.33 59.29L250.39 59.78L253.33 58.8C254.996 58.212 263.816 55.86 272.93 53.508C291.256 48.706 294.98 47.5301 294.98 46.2561C294.98 44.884 265.58 44.1001 256.368 45.0801C248.43 46.0601 234.808 49.49 226.968 52.528C222.362 54.292 221.48 53.802 225.106 51.45C231.574 47.236 244.02 36.848 244.02 35.574C244.02 34.692 243.334 34.398 242.354 34.692C241.374 34.888 234.024 36.946 225.89 39.2C204.918 44.982 190.806 51.9401 176.792 63.3081C173.852 65.7581 171.5 67.2281 171.5 66.6401C171.5 66.1501 172.382 62.3281 173.558 58.2121C174.636 54.1941 175.322 50.47 174.93 50.176C174.636 49.784 172.774 51.5481 170.814 53.9001C166.306 59.5841 150.724 74.578 145.334 78.498C142.1 80.752 141.12 81.0461 141.12 79.9681C141.12 79.0861 140.728 78.4001 140.336 78.4001C139.062 78.4001 122.892 95.0601 118.482 100.94C114.17 106.722 110.642 113.092 108.878 118.58C107.408 123.382 106.036 134.26 106.918 134.26C107.408 134.26 111.328 127.008 115.64 118.188C119.952 109.368 124.166 101.626 124.95 100.94C125.734 100.352 125.048 102.116 123.48 105.056C118.482 113.974 114.856 128.38 117.502 128.38C117.992 128.38 120.246 125.146 122.402 121.128C124.558 117.11 126.812 113.582 127.302 113.288C127.792 112.994 127.302 115.934 126.322 119.756C125.244 123.774 124.852 127.204 125.342 127.694C126.518 128.87 129.654 124.166 132.202 117.208C134.358 111.328 138.67 103.292 140.14 102.41C140.63 102.116 139.65 104.468 138.082 107.604C134.652 114.562 132.79 122.99 133.672 127.792C134.358 131.32 142.296 143.08 144.06 143.08C145.334 143.08 145.334 142.982 143.57 138.866C142.688 136.612 142.1 132.202 142.1 127.204C142.1 120.246 142.492 118.188 145.04 112.994C148.372 105.84 149.842 104.566 146.804 111.524C145.53 114.366 144.55 118.972 144.256 123.578C143.864 130.046 144.158 131.614 146.412 136.416C147.784 139.356 149.842 142.59 150.92 143.57C152.88 145.334 152.88 145.236 152.88 142.688C152.88 140.14 152.978 140.042 155.036 141.512C157.878 143.57 164.934 143.472 168.854 141.512C170.618 140.63 175.518 136.71 179.732 132.888C187.474 126.028 188.16 125.832 183.652 132.006C181.496 134.848 180.614 137.2 181.79 137.2C182.084 137.2 184.926 135.926 188.16 134.358C196 130.536 202.762 125.538 212.072 116.62L219.814 109.27L213.64 117.404C210.21 121.814 207.76 125.734 208.054 126.126C208.838 126.812 231.77 113.386 235.69 109.76C237.356 108.388 242.354 104.174 246.96 100.548L255.29 93.8841L245 103.88C238.14 110.544 235.494 113.68 237.16 113.19C240.1 112.308 253.624 103.782 262.64 97.3141C266.854 94.3741 268.226 93.6881 266.658 95.3541C265.286 96.8241 264.502 98.2941 264.894 98.5881C265.188 98.8821 269.206 97.6081 273.714 95.6481C285.474 90.6501 286.062 91.2381 275.478 97.3141C264.992 103.39 259.7 107.702 259.7 110.348C259.7 111.916 262.052 112.7 276.458 115.934C285.67 117.992 295.274 120.54 297.822 121.52L302.33 123.382L297.92 122.696C295.47 122.304 289.786 122.01 285.18 122.108C278.124 122.108 276.066 122.5 271.656 124.852C265.874 127.792 259.21 134.162 250.88 144.55C240.688 157.29 232.162 161.7 217.658 161.7C205.898 161.7 200.312 159.838 193.746 153.86C190.806 151.116 188.062 148.96 187.768 148.96C186.592 148.96 189.336 153.272 193.648 158.466C198.646 164.346 204.036 167.678 212.17 170.03C219.716 172.284 238.238 171.598 248.92 168.756C258.328 166.208 259.112 166.796 249.998 169.54C246.176 170.716 242.746 172.088 242.452 172.578C242.158 173.068 244.706 173.558 248.136 173.558C251.566 173.656 253.232 173.852 251.86 174.146C244.314 175.224 243.04 175.616 243.04 176.302C243.04 176.792 246.274 177.478 250.194 177.87C254.016 178.36 256.662 178.85 255.976 179.046C253.036 180.124 256.466 181.3 262.444 181.3L269.01 181.398L265.09 183.554C262.934 184.73 259.112 187.18 256.564 189.042L251.86 192.472L254.016 194.432L256.27 196.49L253.526 196.784C249.41 197.274 250.782 198.94 257.544 201.684C260.876 203.056 263.424 204.33 263.228 204.526C263.032 204.722 260.092 204.232 256.662 203.448C240.786 199.92 238.63 200.704 250.684 205.604C262.052 210.21 263.62 211.974 253.82 209.034C246.47 206.878 243.138 206.486 226.184 206.094C215.6 205.8 205.31 205.898 203.35 206.192L199.724 206.878L201.782 209.132C202.958 210.406 206.388 212.562 209.328 214.032C212.366 215.502 214.62 216.874 214.424 217.07C214.326 217.168 211.974 216.972 209.23 216.58C201.684 215.306 190.904 215.404 191.296 216.678C191.492 217.364 197.764 219.814 205.212 222.264C212.562 224.616 218.54 226.772 218.344 226.968C218.148 227.164 214.13 226.674 209.328 225.89C199.724 224.322 174.636 222.754 175.518 223.832C176.204 224.518 203.448 231.966 219.03 235.69C232.162 238.826 246.568 244.118 256.76 249.606C261.366 252.056 266.462 254.8 268.03 255.584C272.832 258.034 285.376 271.46 291.158 280.182C295.372 286.748 296.548 287.924 296.744 286.258C297.234 282.828 294.294 270.774 290.766 262.15C283.318 243.824 272.636 232.358 252.644 221.48C244.412 216.972 244.51 216.678 253.036 219.912C267.638 225.302 277.634 231.574 287.924 241.472C302.036 255.094 309.484 268.716 313.796 288.61L315.07 294.49L315.364 286.944C315.56 281.848 314.972 276.556 313.6 270.97ZM405.23 283.71C405.916 278.32 404.054 267.54 401.31 261.072C398.762 255.29 398.468 258.622 400.82 266.266C402.29 270.97 402.878 275.282 402.78 280.77C402.682 285.082 402.682 289.296 402.78 290.08C402.976 292.922 404.446 288.904 405.23 283.71ZM288.806 282.926C283.024 273.224 269.206 259.504 258.818 253.232C237.16 240.002 212.072 233.828 170.912 231.378C156.604 230.496 153.762 230.496 154.938 231.672C155.428 232.162 166.502 233.632 181.79 235.2C194.922 236.572 217.952 241.276 229.124 244.902C240.786 248.724 254.702 255.094 262.15 260.092C268.52 264.306 282.436 278.026 287.434 284.984C291.158 290.178 292.138 288.708 288.806 282.926ZM236.768 275.184C231.966 266.462 227.85 260.778 226.968 261.758C226.674 262.052 227.458 263.816 228.732 265.678C230.006 267.54 232.456 271.656 234.22 274.89C240.198 285.866 240.59 286.356 240.884 284.788C241.08 284.004 239.218 279.594 236.768 275.184ZM76.44 267.638C77.322 258.328 78.008 255.29 80.85 249.214C88.886 231.77 104.86 218.246 122.99 213.542C132.692 210.994 136.22 211.288 128.38 214.032C124.852 215.208 119.364 217.658 116.13 219.324C108.976 223.146 95.452 233.436 95.844 234.71C96.726 237.846 117.11 231.672 138.18 221.97C157.192 213.052 176.498 205.31 186.69 202.468C195.902 199.92 210.994 197.764 230.888 196.098C237.454 195.608 244.314 194.53 246.176 193.746C252.644 191.1 253.526 182.28 247.45 180.712C246.078 180.418 235.004 180.32 222.754 180.614C202.272 181.006 199.528 181.3 190.61 183.652C173.362 188.356 154.644 195.608 151.802 198.744L149.352 201.488L146.804 198.94C144.158 196.196 142.492 195.608 125.44 190.61C107.31 185.416 106.82 185.024 102.312 174.44C99.47 167.678 95.256 161.014 92.708 158.76C90.65 157.192 88.69 158.956 79.282 170.422C71.344 180.222 65.366 192.178 61.936 204.82C58.604 217.266 58.408 238.434 61.544 249.998C64.19 259.994 73.696 280.378 75.068 279.104C75.264 278.908 75.852 273.714 76.44 267.638ZM103.194 244.51C107.8 243.726 114.17 242.06 117.306 240.982C122.5 239.022 134.848 232.26 139.552 228.83C143.472 225.89 140.042 226.38 132.888 229.712C124.852 233.338 108.388 238.336 98 240.1C91.336 241.276 89.18 242.354 89.18 244.608C89.18 246.372 92.61 246.372 103.194 244.51ZM169.05 189.434C182.084 184.73 199.626 179.83 207.564 178.85C214.032 177.968 214.13 176.204 207.858 174.538C205.114 173.852 200.508 171.598 197.47 169.442C185.514 161.112 177.674 158.76 166.208 160.132C155.722 161.504 147 171.696 147 182.476V187.18L141.61 182.77C134.162 176.694 129.066 174.342 122.304 173.754C116.816 173.166 116.62 173.068 116.62 170.324C116.62 164.542 122.108 159.74 128.674 159.74C133.77 159.74 138.18 163.268 140.728 169.54C141.904 172.48 143.276 175.028 143.766 175.126C144.256 175.322 145.53 171.99 146.51 167.776C148.568 158.564 147.686 155.428 142.1 152.684L138.67 151.018L142.394 150.92C144.354 150.92 146.02 150.528 146.02 149.94C146.02 149.45 143.668 147.49 140.924 145.53C134.162 141.12 124.95 138.768 117.698 139.65C112.504 140.336 103.292 143.374 101.626 144.942C101.234 145.432 102.214 147.882 103.88 150.626C105.546 153.272 107.114 157.192 107.408 159.348L107.898 163.17L106.232 160.23C103.586 155.428 101.724 153.86 98.98 153.86C97.51 153.86 95.746 154.546 95.06 155.33C94.08 156.506 94.374 157.388 96.922 160.23C98.588 162.19 102.018 167.678 104.37 172.48C109.368 182.476 109.956 182.868 123.284 186.69C128.282 188.062 134.652 190.12 137.494 191.296C148.862 195.902 152.194 195.706 169.05 189.434ZM231.476 152.096C239.61 146.706 243.334 134.946 239.512 126.812C237.062 121.716 235.984 121.226 231.868 123.186C228.046 124.95 227.654 126.518 229.81 130.34C232.064 134.358 231.574 137.984 228.438 141.218C226.086 143.472 224.714 144.06 221.088 144.06C217.56 144.06 216.384 143.57 214.718 141.512C213.542 140.042 212.66 137.788 212.66 136.318C212.66 132.006 211.582 131.32 206.78 132.104C202.86 132.79 202.37 133.182 202.076 135.632C201.586 139.748 206.29 148.568 210.504 151.41C213.542 153.468 215.208 153.86 221.48 153.86C226.87 153.86 229.516 153.37 231.476 152.096ZM102.802 130.536C104.174 125.048 104.468 120.05 103.39 119.658C102.116 119.168 100.156 125.832 100.058 131.124C99.96 136.122 101.43 135.828 102.802 130.536Z" fill="url(#paint0_linear_41_40)"/>
<path d="M146.51 210.014C146.902 209.034 147.49 207.466 147.686 206.584C147.98 205.604 148.96 204.82 149.842 204.82C150.724 204.82 156.702 202.468 163.17 199.626C182.476 191.002 200.018 186.788 222.362 185.122C236.768 184.142 244.02 184.73 244.804 186.984C245.49 189.14 240.1 190.12 217.658 192.08C189.532 194.53 177.478 197.47 155.918 207.466C150.822 209.818 146.51 211.68 146.216 211.68C146.02 211.68 146.118 210.896 146.51 210.014Z" fill="url(#paint1_linear_41_40)"/>
<defs>
<linearGradient id="paint0_linear_41_40" x1="208.25" y1="193.006" x2="687.633" y2="474.483" gradientUnits="userSpaceOnUse">
<stop stop-color="#FCA311"/>
<stop offset="1" stop-color="#070606"/>
</linearGradient>
<linearGradient id="paint1_linear_41_40" x1="551.25" y1="165.239" x2="169.594" y2="202.261" gradientUnits="userSpaceOnUse">
<stop stop-color="#070606"/>
<stop offset="1" stop-color="#FCA311"/>
</linearGradient>
</defs>
</svg>
