<svg width="250" height="45" viewBox="0 0 777 183" fill="none" xmlns="http://www.w3.org/2000/svg">
<g clip-path="url(#clip0_41_3)">
<path d="M400.576 171.056C396.652 169.544 394.564 168.104 391.972 165.116C389.74 162.56 388.48 160.22 387.58 156.908C387.22 155.648 386.788 154.64 386.644 154.64C386.464 154.64 386.104 155.18 385.852 155.792L385.384 156.98L384.916 155.72C384.628 155 384.34 152.192 384.268 149.204C384.088 144.632 384.16 143.588 384.844 140.96C386.176 135.848 386.968 133.904 388.66 131.492C392.26 126.308 393.556 122.24 393.484 116.192L393.412 112.7L393.124 115.616C392.296 124.436 389.128 130.916 384.7 133.004C382.396 134.084 382.144 133.94 383.62 132.428C386.248 129.656 389.2 123.896 390.1 119.72C391.468 113.42 390.604 106.004 387.904 101.072C387.184 99.7399 386.392 98.2279 386.104 97.7239C385.384 96.3559 383.224 94.1599 382.612 94.1599C382.36 94.1599 381.316 94.4119 380.344 94.7359C379.372 95.0239 376.492 95.5639 373.9 95.9239L369.22 96.5359L369.256 101.216C369.292 104.564 369.508 106.796 370.084 109.172C371.128 113.744 371.128 113.744 369.688 113.024C366.16 111.26 364.18 109.712 362.2 107.228C358.672 102.836 357.016 99.4159 355.9 94.0879C355.216 90.7399 355.216 82.3519 355.9 78.4639C357.16 71.3359 361.336 63.7039 366.88 58.3759L369.472 55.8559L369.58 52.2559C369.688 47.6839 370.804 43.0039 372.532 39.6919L373.864 37.1719L374.26 39.1159C374.476 40.3399 374.8 41.0599 375.124 41.0599C375.376 41.0599 376.276 39.9799 377.104 38.6479C378.544 36.2719 389.668 24.5719 390.1 24.9679C390.208 25.0759 390.28 25.4719 390.28 25.8319C390.28 26.5879 390.964 26.6959 391.792 26.0479C392.836 25.1839 398.416 18.7399 399.496 17.1199C400.576 15.5359 402.268 12.1879 402.664 10.9279C403.204 9.09194 404.644 11.8999 405.076 15.6439C405.256 17.0839 405.436 18.3799 405.544 18.4519C405.616 18.5239 406.696 18.0919 407.92 17.4799C411.34 15.7519 415.228 14.4199 421.096 12.9799C426.82 11.5759 429.916 10.4599 431.752 9.16394L432.868 8.33594L432.652 9.52394C432.508 10.1719 432.004 11.5039 431.5 12.5119C430.996 13.4839 430.6 14.4559 430.6 14.6359C430.6 15.3919 452.344 14.8879 455.584 14.0599C456.556 13.8079 456.592 13.8079 456.16 14.6359C455.188 16.4359 452.452 18.8839 450.544 19.6759C449.464 20.1439 448.6 20.6119 448.6 20.7919C448.6 21.4039 451.192 22.3399 458.86 24.4639C463.36 25.7239 471.784 27.5599 472.972 27.5599C473.548 27.5599 474.196 27.7039 474.484 27.8839C475.168 28.3159 472.684 30.0799 469.048 31.8079C467.5 32.5279 466.24 33.2839 466.24 33.4999C466.24 33.7159 466.672 34.2199 467.248 34.6159C468.436 35.5159 474.844 39.1879 478.444 41.0599C481.396 42.6079 481.288 42.9319 477.94 43.0399C474.412 43.1479 474.412 43.2919 477.904 46.6759C481.252 49.8799 484.384 52.2559 487.3 53.7319L489.064 54.6319L488.128 55.4599C487.156 56.2879 484.384 57.0799 482.44 57.0799C481.828 57.0799 481.36 57.2599 481.36 57.4759C481.36 57.9439 485.86 62.2639 488.416 64.2799C490.432 65.8639 493.456 67.0519 496.372 67.4119C497.452 67.5199 498.388 67.7359 498.46 67.9159C498.748 68.3119 496.624 69.8239 494.32 70.9039C492.052 71.9839 489.712 72.0919 486.76 71.3359C485.68 71.0479 484.708 70.9039 484.636 70.9759C484.564 71.0479 485.608 72.3079 486.976 73.7479C488.38 75.1519 489.964 76.9879 490.54 77.7799C491.116 78.5719 493.456 81.3079 495.724 83.8279C498.892 87.3919 499.72 88.5439 499.324 88.7959C498.568 89.2639 493.708 89.1559 491.08 88.5799C486.94 87.6799 486.76 87.8239 488.776 90.5959C490.54 93.0079 492.448 97.0399 493.06 99.7039C493.348 100.892 493.672 103.592 493.816 105.68L494.032 109.46L492.448 107.948C491.584 107.084 490.612 106.4 490.252 106.4C489.928 106.4 489.64 106.472 489.64 106.544C489.64 106.58 489.46 108.704 489.28 111.26C488.668 118.676 487.48 123.068 485.068 126.848C483.772 128.936 481.216 131.636 479.92 132.32C479.164 132.716 479.128 132.68 479.344 132.104C480.064 130.196 480.352 125.876 479.956 122.924C479.524 120.008 479.092 118.64 478.696 119.036C478.588 119.108 478.264 120.44 477.94 121.988C477.112 126.056 475.132 131.384 473.584 133.688C472.864 134.84 470.776 137.216 468.94 139.016C463.828 144.056 459.868 145.856 452.128 146.54C449.86 146.756 449.716 146.828 448.744 148.196C446.836 151.004 443.956 152.984 440.752 153.812C439.78 154.028 439.78 154.028 441.112 152.444C442.912 150.212 444.604 146.864 444.82 144.92L445.036 143.3L443.848 144.704C440.608 148.52 437.008 151.976 434.74 153.38C431.968 155.108 425.884 157.844 417.928 160.94C415.084 162.056 411.664 163.496 410.26 164.18C407.488 165.512 403.6 168.428 403.6 169.148C403.6 169.4 404.104 170.084 404.68 170.66C405.292 171.236 405.76 171.812 405.76 171.992C405.76 172.604 403.672 172.208 400.576 171.056ZM402.628 166.988C403.888 165.836 407.092 163.604 409.756 162.02C420.016 155.936 423.4 153.524 428.548 148.556C430.6 146.576 431.176 145.64 429.988 146.324C429.628 146.504 427.72 148.16 425.74 149.96C421.96 153.38 420.448 154.496 415.48 157.412C413.788 158.42 410.476 160.364 408.1 161.768C405.616 163.244 403.024 165.08 401.98 166.124C401.008 167.132 400 167.96 399.784 167.96C398.848 167.96 393.628 162.596 392.512 160.472C391.18 157.988 390.136 153.848 390.424 152.3C390.676 150.86 392.98 143.444 396.436 132.896C397.984 128.144 399.172 124.184 399.1 124.112C398.74 123.752 397.012 128.324 393.664 138.368C389.344 151.364 389.128 152.372 389.56 155.396C390.028 158.348 391.972 162.308 394.132 164.72C395.824 166.592 399.064 169.04 399.892 169.04C400.144 169.04 401.368 168.104 402.628 166.988ZM387.184 146.576C388.192 143.732 388.372 142.724 387.76 143.336C387.004 144.092 385.564 149.24 386.104 149.24C386.176 149.24 386.644 148.052 387.184 146.576ZM420.952 144.92C424.084 140.06 427.972 128.684 427.648 125.336C427.576 124.508 427.324 125.12 426.676 127.64C425.668 131.6 423.292 138.692 422.212 140.78C421.816 141.572 420.628 143.66 419.584 145.388C418.504 147.152 417.64 148.664 417.64 148.772C417.64 149.348 419.404 147.332 420.952 144.92ZM463.936 129.62C465.52 126.164 465.88 124.076 465.88 118.532C465.88 113.708 465.556 110.684 464.836 108.776C464.224 107.192 464.044 107.84 464.476 110.036C464.656 111.116 464.836 114.572 464.836 117.74C464.872 122.996 464.764 123.752 463.9 126.56C463.36 128.252 462.388 130.628 461.704 131.888C461.02 133.112 460.48 134.408 460.48 134.732C460.48 135.632 462.64 132.464 463.936 129.62ZM403.204 127.352C404.824 122.276 405.364 119.432 405.616 114.5C405.904 108.848 405.436 105.644 403.78 102.188C403.096 100.676 402.412 99.5599 402.304 99.6679C402.196 99.7759 402.628 101.36 403.276 103.232C404.356 106.4 404.428 106.832 404.428 111.98C404.428 117.74 403.852 122.024 402.304 127.568C401.368 131.06 401.296 131.384 401.764 131.096C401.944 130.988 402.592 129.296 403.204 127.352ZM420.34 126.848C422.572 122.24 423.4 118.712 423.4 113.96C423.4 107.804 422.32 105.032 418.324 100.928C415.552 98.0839 414.58 98.0479 416.74 100.892C421.6 107.228 422.572 117.272 419.26 126.452C417.82 130.34 417.892 130.16 418.36 130.16C418.54 130.16 419.44 128.648 420.34 126.848ZM430.276 125.408C430.924 122.564 430.888 113.816 430.24 111.08C429.376 107.3 427.18 103.34 423.58 99.0199C422.5 97.7239 421.996 98.0479 422.896 99.4879C428.872 108.848 429.628 111.296 429.448 120.98C429.376 124.652 429.448 127.64 429.556 127.64C429.7 127.64 430.024 126.632 430.276 125.408ZM440.248 119.756C440.068 115.256 439.924 114.104 439.06 111.656C438.016 108.596 436.648 106.04 436.432 106.688C436.36 106.904 436.648 107.732 437.08 108.56C438.448 111.26 439.204 115.184 439.456 120.872C439.636 124.652 439.816 126.092 440.068 125.624C440.284 125.264 440.356 122.852 440.248 119.756ZM471.928 111.728C471.82 109.172 471.568 107.66 471.136 106.832C470.776 106.148 470.452 105.68 470.38 105.752C470.308 105.824 470.488 106.904 470.74 108.2C471.028 109.496 471.244 111.62 471.28 112.988C471.28 114.536 471.424 115.4 471.676 115.4C471.964 115.4 472.036 114.32 471.928 111.728ZM417.496 105.104C416.488 102.872 413.572 99.8479 411.232 98.5519C410.404 98.0839 409.72 97.8319 409.72 98.0119C409.72 98.1559 410.872 99.4519 412.276 100.82C414.796 103.304 416.416 105.968 417.064 108.74C417.208 109.352 417.496 110.468 417.748 111.26C418.18 112.7 418.18 112.7 418.288 109.892C418.36 107.516 418.252 106.76 417.496 105.104ZM452.2 101.54C451.804 99.8479 450.904 97.1839 450.22 95.6719C449.5 94.1599 449.068 93.0799 449.284 93.2599C450.004 94.0159 452.56 99.4159 452.776 100.64C453.1 102.692 453.244 102.98 453.712 102.512C454.288 101.936 453.388 93.0439 452.452 90.5959C450.292 84.7279 445.936 79.6519 440.356 76.4839C439.312 75.8719 438.52 75.3319 438.592 75.2239C438.7 75.1519 440.032 75.4039 441.616 75.7999C449.68 77.8519 456.592 81.6679 461.56 86.7439C464.476 89.7319 464.692 88.6879 462.28 83.5399C460.516 79.8319 458.284 77.3119 454.612 75.0799C450.94 72.8119 451.552 72.7759 455.908 74.9359C460.408 77.2039 464.656 80.2999 468.796 84.3319C472.288 87.7159 473.548 88.5079 472.648 86.8159C471.784 85.1959 466.924 79.8319 463.18 76.3399C460.048 73.4599 458.86 72.5959 455.728 71.1199C451.948 69.2839 452.308 69.0679 456.484 70.6159C458.968 71.5519 461.956 73.1359 464.332 74.8279C465.196 75.4399 465.988 75.8359 466.096 75.7279C466.42 75.3679 464.656 72.8479 462.46 70.4719C460.336 68.1679 457.348 66.1159 454.972 65.3599C454.216 65.1439 453.676 64.8559 453.748 64.7839C454.072 64.4599 460.012 66.5479 462.82 67.9519C466.672 69.8959 473.044 74.1439 476.14 76.8439C480.28 80.4799 480.172 79.4719 475.888 75.0439C471.748 70.7599 467.248 67.3759 462.928 65.2879C460.804 64.2799 459.112 63.3799 459.184 63.3079C459.22 63.2359 460.192 63.5239 461.308 63.8839C462.46 64.2799 463.36 64.4599 463.36 64.2799C463.36 62.9839 455.296 58.6999 448.672 56.4679C446.44 55.7119 444.748 55.0639 444.964 54.9919C445.72 54.7399 451.84 56.1079 455.8 57.4039C460.588 58.9879 464.692 60.9679 468.256 63.4159C469.624 64.3519 471.388 65.5759 472.216 66.1159C473.008 66.6559 474.7 68.0239 475.96 69.1759C477.256 70.3279 478.336 71.0479 478.408 70.7959C478.588 70.2559 476.32 67.7359 472.036 63.7759C467.932 59.9959 465.592 58.4119 460.3 55.7479C455.044 53.1199 456.916 53.6599 462.82 56.4679C465.484 57.7279 468.76 59.6719 470.488 60.9679C475.636 64.8199 475.384 63.7039 469.552 56.6839C466.384 52.8319 462.892 50.1679 456.7 46.8199C453.604 45.1279 448.6 43.0399 447.592 43.0399C447.268 43.0039 446.512 42.7879 445.9 42.4999C444.892 41.9959 444.964 41.9599 447.34 42.1759C451.12 42.4999 456.304 43.5799 459.94 44.8399C463.684 46.1359 472.9 50.5639 475.132 52.1479C476.716 53.2639 477.724 53.2639 476.464 52.1119C474.196 50.0599 469.192 46.6399 465.7 44.7679C464.332 44.0119 463.396 43.3999 463.684 43.3999C464.296 43.3999 470.38 46.6399 473.008 48.3679C474.052 49.0519 474.988 49.5199 475.096 49.4119C475.564 48.9439 473.224 45.6319 470.632 43.1119C468.328 40.8439 467.284 40.1239 463.216 38.1799C460.624 36.8839 458.572 35.8759 458.68 35.8399C458.788 35.8399 459.76 36.0919 460.84 36.3799C463.216 37.0279 463 36.9919 463 36.5599C463 36.3799 461.992 35.5519 460.768 34.7599C458.608 33.3559 458.572 33.3199 459.688 33.3199C461.128 33.3199 461.272 32.3479 459.868 31.9879L458.86 31.7719L459.76 31.4839C460.264 31.3399 461.596 30.9439 462.748 30.6199C463.9 30.2959 464.728 29.9359 464.656 29.7559C464.548 29.6119 463.108 29.1079 461.488 28.6399C459.832 28.2079 456.052 27.0559 453.028 26.0839C444.784 23.4559 442.588 23.0959 436.396 23.3479C433.516 23.4919 430.672 23.6719 430.06 23.7799L428.98 23.9599L430.06 23.5999C430.672 23.3839 433.912 22.5199 437.26 21.6559C443.992 19.8919 445.36 19.4599 445.36 18.9919C445.36 18.4879 434.56 18.1999 431.176 18.5599C428.26 18.9199 423.256 20.1799 420.376 21.2959C418.684 21.9439 418.36 21.7639 419.692 20.8999C422.068 19.3519 426.64 15.5359 426.64 15.0679C426.64 14.7439 426.388 14.6359 426.028 14.7439C425.668 14.8159 422.968 15.5719 419.98 16.3999C412.276 18.5239 407.092 21.0799 401.944 25.2559C400.864 26.1559 400 26.6959 400 26.4799C400 26.2999 400.324 24.8959 400.756 23.3839C401.152 21.9079 401.404 20.5399 401.26 20.4319C401.152 20.2879 400.468 20.9359 399.748 21.7999C398.092 23.8879 392.368 29.3959 390.388 30.8359C389.2 31.6639 388.84 31.7719 388.84 31.3759C388.84 31.0519 388.696 30.7999 388.552 30.7999C388.084 30.7999 382.144 36.9199 380.524 39.0799C378.94 41.2039 377.644 43.5439 376.996 45.5599C376.456 47.3239 375.952 51.3199 376.276 51.3199C376.456 51.3199 377.896 48.6559 379.48 45.4159C381.064 42.1759 382.612 39.3319 382.9 39.0799C383.188 38.8639 382.936 39.5119 382.36 40.5919C380.524 43.8679 379.192 49.1599 380.164 49.1599C380.344 49.1599 381.172 47.9719 381.964 46.4959C382.756 45.0199 383.584 43.7239 383.764 43.6159C383.944 43.5079 383.764 44.5879 383.404 45.9919C383.008 47.4679 382.864 48.7279 383.044 48.9079C383.476 49.3399 384.628 47.6119 385.564 45.0559C386.356 42.8959 387.94 39.9439 388.48 39.6199C388.66 39.5119 388.3 40.3759 387.724 41.5279C386.464 44.0839 385.78 47.1799 386.104 48.9439C386.356 50.2399 389.272 54.5599 389.92 54.5599C390.388 54.5599 390.388 54.5239 389.74 53.0119C389.416 52.1839 389.2 50.5639 389.2 48.7279C389.2 46.1719 389.344 45.4159 390.28 43.5079C391.504 40.8799 392.044 40.4119 390.928 42.9679C390.46 44.0119 390.1 45.7039 389.992 47.3959C389.848 49.7719 389.956 50.3479 390.784 52.1119C391.288 53.1919 392.044 54.3799 392.44 54.7399C393.16 55.3879 393.16 55.3519 393.16 54.4159C393.16 53.4799 393.196 53.4439 393.952 53.9839C394.996 54.7399 397.588 54.7039 399.028 53.9839C399.676 53.6599 401.476 52.2199 403.024 50.8159C405.868 48.2959 406.12 48.2239 404.464 50.4919C403.672 51.5359 403.348 52.3999 403.78 52.3999C403.888 52.3999 404.932 51.9319 406.12 51.3559C409 49.9519 411.484 48.1159 414.904 44.8399L417.748 42.1399L415.48 45.1279C414.22 46.7479 413.32 48.1879 413.428 48.3319C413.716 48.5839 422.14 43.6519 423.58 42.3199C424.192 41.8159 426.028 40.2679 427.72 38.9359L430.78 36.4879L427 40.1599C424.48 42.6079 423.508 43.7599 424.12 43.5799C425.2 43.2559 430.168 40.1239 433.48 37.7479C435.028 36.6679 435.532 36.4159 434.956 37.0279C434.452 37.5679 434.164 38.1079 434.308 38.2159C434.416 38.3239 435.892 37.8559 437.548 37.1359C441.868 35.2999 442.084 35.5159 438.196 37.7479C434.344 39.9799 432.4 41.5639 432.4 42.5359C432.4 43.1119 433.264 43.3999 438.556 44.5879C441.94 45.3439 445.468 46.2799 446.404 46.6399L448.06 47.3239L446.44 47.0719C445.54 46.9279 443.452 46.8199 441.76 46.8559C439.168 46.8559 438.412 46.9999 436.792 47.8639C434.668 48.9439 432.22 51.2839 429.16 55.0999C425.416 59.7799 422.284 61.3999 416.956 61.3999C412.636 61.3999 410.584 60.7159 408.172 58.5199C407.092 57.5119 406.084 56.7199 405.976 56.7199C405.544 56.7199 406.552 58.3039 408.136 60.2119C409.972 62.3719 411.952 63.5959 414.94 64.4599C417.712 65.2879 424.516 65.0359 428.44 63.9919C431.896 63.0559 432.184 63.2719 428.836 64.2799C427.432 64.7119 426.172 65.2159 426.064 65.3959C425.956 65.5759 426.892 65.7559 428.152 65.7559C429.412 65.7919 430.024 65.8639 429.52 65.9719C426.748 66.3679 426.28 66.5119 426.28 66.7639C426.28 66.9439 427.468 67.1959 428.908 67.3399C430.312 67.5199 431.284 67.6999 431.032 67.7719C429.952 68.1679 431.212 68.5999 433.408 68.5999L435.82 68.6359L434.38 69.4279C433.588 69.8599 432.184 70.7599 431.248 71.4439L429.52 72.7039L430.312 73.4239L431.14 74.1799L430.132 74.2879C428.62 74.4679 429.124 75.0799 431.608 76.0879C432.832 76.5919 433.768 77.0599 433.696 77.1319C433.624 77.2039 432.544 77.0239 431.284 76.7359C425.452 75.4399 424.66 75.7279 429.088 77.5279C433.264 79.2199 433.84 79.8679 430.24 78.7879C427.54 77.9959 426.316 77.8519 420.088 77.7079C416.2 77.5999 412.42 77.6359 411.7 77.7439L410.368 77.9959L411.124 78.8239C411.556 79.2919 412.816 80.0839 413.896 80.6239C415.012 81.1639 415.84 81.6679 415.768 81.7399C415.732 81.7759 414.868 81.7039 413.86 81.5599C411.088 81.0919 407.128 81.1279 407.272 81.5959C407.344 81.8479 409.648 82.7479 412.384 83.6479C415.084 84.5119 417.28 85.3039 417.208 85.3759C417.136 85.4479 415.66 85.2679 413.896 84.9799C410.368 84.4039 401.152 83.8279 401.476 84.2239C401.728 84.4759 411.736 87.2119 417.46 88.5799C422.284 89.7319 427.576 91.6759 431.32 93.6919C433.012 94.5919 434.884 95.5999 435.46 95.8879C437.224 96.7879 441.832 101.72 443.956 104.924C445.504 107.336 445.936 107.768 446.008 107.156C446.188 105.896 445.108 101.468 443.812 98.2999C441.076 91.5679 437.152 87.3559 429.808 83.3599C426.784 81.7039 426.82 81.5959 429.952 82.7839C435.316 84.7639 438.988 87.0679 442.768 90.7039C447.952 95.7079 450.688 100.712 452.272 108.02L452.74 110.18L452.848 107.408C452.92 105.536 452.704 103.592 452.2 101.54ZM485.86 106.22C486.112 104.24 485.428 100.28 484.42 97.9039C483.484 95.7799 483.376 97.0039 484.24 99.8119C484.78 101.54 484.996 103.124 484.96 105.14C484.924 106.724 484.924 108.272 484.96 108.56C485.032 109.604 485.572 108.128 485.86 106.22ZM443.092 105.932C440.968 102.368 435.892 97.3279 432.076 95.0239C424.12 90.1639 414.904 87.8959 399.784 86.9959C394.528 86.6719 393.484 86.6719 393.916 87.1039C394.096 87.2839 398.164 87.8239 403.78 88.3999C408.604 88.9039 417.064 90.6319 421.168 91.9639C425.452 93.3679 430.564 95.7079 433.3 97.5439C435.64 99.0919 440.752 104.132 442.588 106.688C443.956 108.596 444.316 108.056 443.092 105.932ZM423.976 103.088C422.212 99.8839 420.7 97.7959 420.376 98.1559C420.268 98.2639 420.556 98.9119 421.024 99.5959C421.492 100.28 422.392 101.792 423.04 102.98C425.236 107.012 425.38 107.192 425.488 106.616C425.56 106.328 424.876 104.708 423.976 103.088ZM365.08 100.316C365.404 96.8959 365.656 95.7799 366.7 93.5479C369.652 87.1399 375.52 82.1719 382.18 80.4439C385.744 79.5079 387.04 79.6159 384.16 80.6239C382.864 81.0559 380.848 81.9559 379.66 82.5679C377.032 83.9719 372.064 87.7519 372.208 88.2199C372.532 89.3719 380.02 87.1039 387.76 83.5399C394.744 80.2639 401.836 77.4199 405.58 76.3759C408.964 75.4399 414.508 74.6479 421.816 74.0359C424.228 73.8559 426.748 73.4599 427.432 73.1719C429.808 72.1999 430.132 68.9599 427.9 68.3839C427.396 68.2759 423.328 68.2399 418.828 68.3479C411.304 68.4919 410.296 68.5999 407.02 69.4639C400.684 71.1919 393.808 73.8559 392.764 75.0079L391.864 76.0159L390.928 75.0799C389.956 74.0719 389.344 73.8559 383.08 72.0199C376.42 70.1119 376.24 69.9679 374.584 66.0799C373.54 63.5959 371.992 61.1479 371.056 60.3199C370.3 59.7439 369.58 60.3919 366.124 64.6039C363.208 68.2039 361.012 72.5959 359.752 77.2399C358.528 81.8119 358.456 89.5879 359.608 93.8359C360.58 97.5079 364.072 104.996 364.576 104.528C364.648 104.456 364.864 102.548 365.08 100.316ZM374.908 91.8199C376.6 91.5319 378.94 90.9199 380.092 90.5239C382 89.8039 386.536 87.3199 388.264 86.0599C389.704 84.9799 388.444 85.1599 385.816 86.3839C382.864 87.7159 376.816 89.5519 373 90.1999C370.552 90.6319 369.76 91.0279 369.76 91.8559C369.76 92.5039 371.02 92.5039 374.908 91.8199ZM399.1 71.5879C403.888 69.8599 410.332 68.0599 413.248 67.6999C415.624 67.3759 415.66 66.7279 413.356 66.1159C412.348 65.8639 410.656 65.0359 409.54 64.2439C405.148 61.1839 402.268 60.3199 398.056 60.8239C394.204 61.3279 391 65.0719 391 69.0319V70.7599L389.02 69.1399C386.284 66.9079 384.412 66.0439 381.928 65.8279C379.912 65.6119 379.84 65.5759 379.84 64.5679C379.84 62.4439 381.856 60.6799 384.268 60.6799C386.14 60.6799 387.76 61.9759 388.696 64.2799C389.128 65.3599 389.632 66.2959 389.812 66.3319C389.992 66.4039 390.46 65.1799 390.82 63.6319C391.576 60.2479 391.252 59.0959 389.2 58.0879L387.94 57.4759L389.308 57.4399C390.028 57.4399 390.64 57.2959 390.64 57.0799C390.64 56.8999 389.776 56.1799 388.768 55.4599C386.284 53.8399 382.9 52.9759 380.236 53.2999C378.328 53.5519 374.944 54.6679 374.332 55.2439C374.188 55.4239 374.548 56.3239 375.16 57.3319C375.772 58.3039 376.348 59.7439 376.456 60.5359L376.636 61.9399L376.024 60.8599C375.052 59.0959 374.368 58.5199 373.36 58.5199C372.82 58.5199 372.172 58.7719 371.92 59.0599C371.56 59.4919 371.668 59.8159 372.604 60.8599C373.216 61.5799 374.476 63.5959 375.34 65.3599C377.176 69.0319 377.392 69.1759 382.288 70.5799C384.124 71.0839 386.464 71.8399 387.508 72.2719C391.684 73.9639 392.908 73.8919 399.1 71.5879ZM422.032 57.8719C425.02 55.8919 426.388 51.5719 424.984 48.5839C424.084 46.7119 423.688 46.5319 422.176 47.2519C420.772 47.8999 420.628 48.4759 421.42 49.8799C422.248 51.3559 422.068 52.6879 420.916 53.8759C420.052 54.7039 419.548 54.9199 418.216 54.9199C416.92 54.9199 416.488 54.7399 415.876 53.9839C415.444 53.4439 415.12 52.6159 415.12 52.0759C415.12 50.4919 414.724 50.2399 412.96 50.5279C411.52 50.7799 411.34 50.9239 411.232 51.8239C411.052 53.3359 412.78 56.5759 414.328 57.6199C415.444 58.3759 416.056 58.5199 418.36 58.5199C420.34 58.5199 421.312 58.3399 422.032 57.8719ZM374.764 49.9519C375.268 47.9359 375.376 46.0999 374.98 45.9559C374.512 45.7759 373.792 48.2239 373.756 50.1679C373.72 52.0039 374.26 51.8959 374.764 49.9519Z" fill="url(#paint0_linear_41_3)"/>
<path d="M390.82 79.1478C390.964 78.7878 391.18 78.2118 391.252 77.8878C391.36 77.5278 391.72 77.2398 392.044 77.2398C392.368 77.2398 394.564 76.3758 396.94 75.3318C404.032 72.1638 410.476 70.6158 418.684 70.0038C423.976 69.6438 426.64 69.8598 426.928 70.6878C427.18 71.4798 425.2 71.8398 416.956 72.5598C406.624 73.4598 402.196 74.5398 394.276 78.2118C392.404 79.0758 390.82 79.7598 390.712 79.7598C390.64 79.7598 390.676 79.4718 390.82 79.1478Z" fill="url(#paint1_linear_41_3)"/>
<path d="M0.3 145L48.3 40H59.25L107.25 145H95.55L51.45 46.45H55.95L11.85 145H0.3ZM19.2 116.95L22.5 107.95H83.55L86.85 116.95H19.2ZM155.087 145.75C146.887 145.75 139.687 144.05 133.487 140.65C127.287 137.15 122.437 132.4 118.937 126.4C115.437 120.3 113.687 113.35 113.687 105.55C113.687 97.75 115.337 90.85 118.637 84.85C122.037 78.85 126.637 74.15 132.437 70.75C138.337 67.25 144.937 65.5 152.237 65.5C159.637 65.5 166.187 67.2 171.887 70.6C177.687 73.9 182.237 78.6 185.537 84.7C188.837 90.7 190.487 97.65 190.487 105.55C190.487 106.05 190.437 106.6 190.337 107.2C190.337 107.7 190.337 108.25 190.337 108.85H121.787V100.9H184.637L180.437 104.05C180.437 98.35 179.187 93.3 176.687 88.9C174.287 84.4 170.987 80.9 166.787 78.4C162.587 75.9 157.737 74.65 152.237 74.65C146.837 74.65 141.987 75.9 137.687 78.4C133.387 80.9 130.037 84.4 127.637 88.9C125.237 93.4 124.037 98.55 124.037 104.35V106C124.037 112 125.337 117.3 127.937 121.9C130.637 126.4 134.337 129.95 139.037 132.55C143.837 135.05 149.287 136.3 155.387 136.3C160.187 136.3 164.637 135.45 168.737 133.75C172.937 132.05 176.537 129.45 179.537 125.95L185.537 132.85C182.037 137.05 177.637 140.25 172.337 142.45C167.137 144.65 161.387 145.75 155.087 145.75ZM212.164 145V66.25H222.364V87.7L221.314 83.95C223.514 77.95 227.214 73.4 232.414 70.3C237.614 67.1 244.064 65.5 251.764 65.5V75.85C251.364 75.85 250.964 75.85 250.564 75.85C250.164 75.75 249.764 75.7 249.364 75.7C241.064 75.7 234.564 78.25 229.864 83.35C225.164 88.35 222.814 95.5 222.814 104.8V145H212.164ZM302.565 145.75C294.965 145.75 288.115 144.05 282.015 140.65C276.015 137.15 271.265 132.4 267.765 126.4C264.265 120.3 262.515 113.35 262.515 105.55C262.515 97.65 264.265 90.7 267.765 84.7C271.265 78.7 276.015 74 282.015 70.6C288.015 67.2 294.865 65.5 302.565 65.5C310.365 65.5 317.265 67.2 323.265 70.6C329.365 74 334.115 78.7 337.515 84.7C341.015 90.7 342.765 97.65 342.765 105.55C342.765 113.35 341.015 120.3 337.515 126.4C334.115 132.4 329.365 137.15 323.265 140.65C317.165 144.05 310.265 145.75 302.565 145.75ZM302.565 136.3C308.265 136.3 313.315 135.05 317.715 132.55C322.115 129.95 325.565 126.35 328.065 121.75C330.665 117.05 331.965 111.65 331.965 105.55C331.965 99.35 330.665 93.95 328.065 89.35C325.565 84.75 322.115 81.2 317.715 78.7C313.315 76.1 308.315 74.8 302.715 74.8C297.115 74.8 292.115 76.1 287.715 78.7C283.315 81.2 279.815 84.75 277.215 89.35C274.615 93.95 273.315 99.35 273.315 105.55C273.315 111.65 274.615 117.05 277.215 121.75C279.815 126.35 283.315 129.95 287.715 132.55C292.115 135.05 297.065 136.3 302.565 136.3ZM552.889 145.75C545.389 145.75 538.639 144.05 532.639 140.65C526.739 137.25 522.089 132.55 518.689 126.55C515.289 120.45 513.589 113.45 513.589 105.55C513.589 97.55 515.289 90.55 518.689 84.55C522.089 78.55 526.739 73.9 532.639 70.6C538.639 67.2 545.389 65.5 552.889 65.5C559.789 65.5 565.939 67.05 571.339 70.15C576.839 73.25 581.189 77.8 584.389 83.8C587.689 89.7 589.339 96.95 589.339 105.55C589.339 114.05 587.739 121.3 584.539 127.3C581.339 133.3 576.989 137.9 571.489 141.1C566.089 144.2 559.889 145.75 552.889 145.75ZM553.639 136.3C559.239 136.3 564.239 135.05 568.639 132.55C573.139 129.95 576.639 126.35 579.139 121.75C581.739 117.05 583.039 111.65 583.039 105.55C583.039 99.35 581.739 93.95 579.139 89.35C576.639 84.75 573.139 81.2 568.639 78.7C564.239 76.1 559.239 74.8 553.639 74.8C548.139 74.8 543.189 76.1 538.789 78.7C534.389 81.2 530.889 84.75 528.289 89.35C525.689 93.95 524.389 99.35 524.389 105.55C524.389 111.65 525.689 117.05 528.289 121.75C530.889 126.35 534.389 129.95 538.789 132.55C543.189 135.05 548.139 136.3 553.639 136.3ZM583.339 145V121.3L584.389 105.4L582.889 89.5V33.7H593.539V145H583.339ZM656.65 145.75C648.45 145.75 641.25 144.05 635.05 140.65C628.85 137.15 624 132.4 620.5 126.4C617 120.3 615.25 113.35 615.25 105.55C615.25 97.75 616.9 90.85 620.2 84.85C623.6 78.85 628.2 74.15 634 70.75C639.9 67.25 646.5 65.5 653.8 65.5C661.2 65.5 667.75 67.2 673.45 70.6C679.25 73.9 683.8 78.6 687.1 84.7C690.4 90.7 692.05 97.65 692.05 105.55C692.05 106.05 692 106.6 691.9 107.2C691.9 107.7 691.9 108.25 691.9 108.85H623.35V100.9H686.2L682 104.05C682 98.35 680.75 93.3 678.25 88.9C675.85 84.4 672.55 80.9 668.35 78.4C664.15 75.9 659.3 74.65 653.8 74.65C648.4 74.65 643.55 75.9 639.25 78.4C634.95 80.9 631.6 84.4 629.2 88.9C626.8 93.4 625.6 98.55 625.6 104.35V106C625.6 112 626.9 117.3 629.5 121.9C632.2 126.4 635.9 129.95 640.6 132.55C645.4 135.05 650.85 136.3 656.95 136.3C661.75 136.3 666.2 135.45 670.3 133.75C674.5 132.05 678.1 129.45 681.1 125.95L687.1 132.85C683.6 137.05 679.2 140.25 673.9 142.45C668.7 144.65 662.95 145.75 656.65 145.75ZM699.53 145L732.83 101.8L732.68 107.05L701.03 66.25H713.03L738.98 100L734.48 99.85L760.43 66.25H772.13L740.18 107.5L740.33 101.8L773.93 145H761.78L734.33 109L738.53 109.6L711.53 145H699.53Z" fill="url(#paint2_linear_41_3)"/>
</g>
<defs>
<linearGradient id="paint0_linear_41_3" x1="413.5" y1="72.8999" x2="589.6" y2="176.3" gradientUnits="userSpaceOnUse">
<stop stop-color="#FCA311"/>
<stop offset="1" stop-color="#070606"/>
</linearGradient>
<linearGradient id="paint1_linear_41_3" x1="539.5" y1="62.6999" x2="399.3" y2="76.2999" gradientUnits="userSpaceOnUse">
<stop stop-color="#070606"/>
<stop offset="1" stop-color="#FCA311"/>
</linearGradient>
<linearGradient id="paint2_linear_41_3" x1="195.204" y1="111.5" x2="869.338" y2="100.532" gradientUnits="userSpaceOnUse">
<stop stop-color="#FCA311"/>
<stop offset="1"/>
</linearGradient>
<clipPath id="clip0_41_3">
<rect width="777" height="183" fill="white"/>
</clipPath>
</defs>
</svg>
