<svg width="1024" height="1024" viewBox="0 0 1024 1024" fill="none" xmlns="http://www.w3.org/2000/svg">
<path d="M379.88 907.28C360.26 899.72 349.82 892.52 336.86 877.58C325.7 864.8 319.4 853.1 314.9 836.54C313.1 830.24 310.94 825.2 310.22 825.2C309.32 825.2 307.52 827.9 306.26 830.96L303.92 836.9L301.58 830.6C300.14 827 298.7 812.96 298.34 798.02C297.44 775.16 297.8 769.94 301.22 756.8C307.88 731.24 311.84 721.52 320.3 709.46C338.3 683.54 344.78 663.2 344.42 632.96L344.06 615.5L342.62 630.08C338.48 674.18 322.64 706.58 300.5 717.02C288.98 722.42 287.72 721.7 295.1 714.14C308.24 700.28 323 671.48 327.5 650.6C334.34 619.1 330.02 582.02 316.52 557.36C312.92 550.7 308.96 543.14 307.52 540.62C303.92 533.78 293.12 522.8 290.06 522.8C288.8 522.8 283.58 524.06 278.72 525.68C273.86 527.12 259.46 529.82 246.5 531.62L223.1 534.68L223.28 558.08C223.46 574.82 224.54 585.98 227.42 597.86C232.64 620.72 232.64 620.72 225.44 617.12C207.8 608.3 197.9 600.56 188 588.14C170.36 566.18 162.08 549.08 156.5 522.44C153.08 505.7 153.08 463.76 156.5 444.32C162.8 408.68 183.68 370.52 211.4 343.88L224.36 331.28L224.9 313.28C225.44 290.42 231.02 267.02 239.66 250.46L246.32 237.86L248.3 247.58C249.38 253.7 251 257.3 252.62 257.3C253.88 257.3 258.38 251.9 262.52 245.24C269.72 233.36 325.34 174.86 327.5 176.84C328.04 177.38 328.4 179.36 328.4 181.16C328.4 184.94 331.82 185.48 335.96 182.24C341.18 177.92 369.08 145.7 374.48 137.6C379.88 129.68 388.34 112.94 390.32 106.64C393.02 97.46 400.22 111.5 402.38 130.22C403.28 137.42 404.18 143.9 404.72 144.26C405.08 144.62 410.48 142.46 416.6 139.4C433.7 130.76 453.14 124.1 482.48 116.9C511.1 109.88 526.58 104.3 535.76 97.82L541.34 93.68L540.26 99.62C539.54 102.86 537.02 109.52 534.5 114.56C531.98 119.42 530 124.28 530 125.18C530 128.96 638.72 126.44 654.92 122.3C659.78 121.04 659.96 121.04 657.8 125.18C652.94 134.18 639.26 146.42 629.72 150.38C624.32 152.72 620 155.06 620 155.96C620 159.02 632.96 163.7 671.3 174.32C693.8 180.62 735.92 189.8 741.86 189.8C744.74 189.8 747.98 190.52 749.42 191.42C752.84 193.58 740.42 202.4 722.24 211.04C714.5 214.64 708.2 218.42 708.2 219.5C708.2 220.58 710.36 223.1 713.24 225.08C719.18 229.58 751.22 247.94 769.22 257.3C783.98 265.04 783.44 266.66 766.7 267.2C749.06 267.74 749.06 268.46 766.52 285.38C783.26 301.4 798.92 313.28 813.5 320.66L822.32 325.16L817.64 329.3C812.78 333.44 798.92 337.4 789.2 337.4C786.14 337.4 783.8 338.3 783.8 339.38C783.8 341.72 806.3 363.32 819.08 373.4C829.16 381.32 844.28 387.26 858.86 389.06C864.26 389.6 868.94 390.68 869.3 391.58C870.74 393.56 860.12 401.12 848.6 406.52C837.26 411.92 825.56 412.46 810.8 408.68C805.4 407.24 800.54 406.52 800.18 406.88C799.82 407.24 805.04 413.54 811.88 420.74C818.9 427.76 826.82 436.94 829.7 440.9C832.58 444.86 844.28 458.54 855.62 471.14C871.46 488.96 875.6 494.72 873.62 495.98C869.84 498.32 845.54 497.78 832.4 494.9C811.7 490.4 810.8 491.12 820.88 504.98C829.7 517.04 839.24 537.2 842.3 550.52C843.74 556.46 845.36 569.96 846.08 580.4L847.16 599.3L839.24 591.74C834.92 587.42 830.06 584 828.26 584C826.64 584 825.2 584.36 825.2 584.72C825.2 584.9 824.3 595.52 823.4 608.3C820.34 645.38 814.4 667.34 802.34 686.24C795.86 696.68 783.08 710.18 776.6 713.6C772.82 715.58 772.64 715.4 773.72 712.52C777.32 702.98 778.76 681.38 776.78 666.62C774.62 652.04 772.46 645.2 770.48 647.18C769.94 647.54 768.32 654.2 766.7 661.94C762.56 682.28 752.66 708.92 744.92 720.44C741.32 726.2 730.88 738.08 721.7 747.08C696.14 772.28 676.34 781.28 637.64 784.7C626.3 785.78 625.58 786.14 620.72 792.98C611.18 807.02 596.78 816.92 580.76 821.06C575.9 822.14 575.9 822.14 582.56 814.22C591.56 803.06 600.02 786.32 601.1 776.6L602.18 768.5L596.24 775.52C580.04 794.6 562.04 811.88 550.7 818.9C536.84 827.54 506.42 841.22 466.64 856.7C452.42 862.28 435.32 869.48 428.3 872.9C414.44 879.56 395 894.14 395 897.74C395 899 397.52 902.42 400.4 905.3C403.46 908.18 405.8 911.06 405.8 911.96C405.8 915.02 395.36 913.04 379.88 907.28ZM390.14 886.94C396.44 881.18 412.46 870.02 425.78 862.1C477.08 831.68 494 819.62 519.74 794.78C530 784.88 532.88 780.2 526.94 783.62C525.14 784.52 515.6 792.8 505.7 801.8C486.8 818.9 479.24 824.48 454.4 839.06C445.94 844.1 429.38 853.82 417.5 860.84C405.08 868.22 392.12 877.4 386.9 882.62C382.04 887.66 377 891.8 375.92 891.8C371.24 891.8 345.14 864.98 339.56 854.36C332.9 841.94 327.68 821.24 329.12 813.5C330.38 806.3 341.9 769.22 359.18 716.48C366.92 692.72 372.86 672.92 372.5 672.56C370.7 670.76 362.06 693.62 345.32 743.84C323.72 808.82 322.64 813.86 324.8 828.98C327.14 843.74 336.86 863.54 347.66 875.6C356.12 884.96 372.32 897.2 376.46 897.2C377.72 897.2 383.84 892.52 390.14 886.94ZM312.92 784.88C317.96 770.66 318.86 765.62 315.8 768.68C312.02 772.46 304.82 798.2 307.52 798.2C307.88 798.2 310.22 792.26 312.92 784.88ZM481.76 776.6C497.42 752.3 516.86 695.42 515.24 678.68C514.88 674.54 513.62 677.6 510.38 690.2C505.34 710 493.46 745.46 488.06 755.9C486.08 759.86 480.14 770.3 474.92 778.94C469.52 787.76 465.2 795.32 465.2 795.86C465.2 798.74 474.02 788.66 481.76 776.6ZM696.68 700.1C704.6 682.82 706.4 672.38 706.4 644.66C706.4 620.54 704.78 605.42 701.18 595.88C698.12 587.96 697.22 591.2 699.38 602.18C700.28 607.58 701.18 624.86 701.18 640.7C701.36 666.98 700.82 670.76 696.5 684.8C693.8 693.26 688.94 705.14 685.52 711.44C682.1 717.56 679.4 724.04 679.4 725.66C679.4 730.16 690.2 714.32 696.68 700.1ZM393.02 688.76C401.12 663.38 403.82 649.16 405.08 624.5C406.52 596.24 404.18 580.22 395.9 562.94C392.48 555.38 389.06 549.8 388.52 550.34C387.98 550.88 390.14 558.8 393.38 568.16C398.78 584 399.14 586.16 399.14 611.9C399.14 640.7 396.26 662.12 388.52 689.84C383.84 707.3 383.48 708.92 385.82 707.48C386.72 706.94 389.96 698.48 393.02 688.76ZM478.7 686.24C489.86 663.2 494 645.56 494 621.8C494 591.02 488.6 577.16 468.62 556.64C454.76 542.42 449.9 542.24 460.7 556.46C485 588.14 489.86 638.36 473.3 684.26C466.1 703.7 466.46 702.8 468.8 702.8C469.7 702.8 474.2 695.24 478.7 686.24ZM528.38 679.04C531.62 664.82 531.44 621.08 528.2 607.4C523.88 588.5 512.9 568.7 494.9 547.1C489.5 540.62 486.98 542.24 491.48 549.44C521.36 596.24 525.14 608.48 524.24 656.9C523.88 675.26 524.24 690.2 524.78 690.2C525.5 690.2 527.12 685.16 528.38 679.04ZM578.24 650.78C577.34 628.28 576.62 622.52 572.3 610.28C567.08 594.98 560.24 582.2 559.16 585.44C558.8 586.52 560.24 590.66 562.4 594.8C569.24 608.3 573.02 627.92 574.28 656.36C575.18 675.26 576.08 682.46 577.34 680.12C578.42 678.32 578.78 666.26 578.24 650.78ZM736.64 610.64C736.1 597.86 734.84 590.3 732.68 586.16C730.88 582.74 729.26 580.4 728.9 580.76C728.54 581.12 729.44 586.52 730.7 593C732.14 599.48 733.22 610.1 733.4 616.94C733.4 624.68 734.12 629 735.38 629C736.82 629 737.18 623.6 736.64 610.64ZM464.48 577.52C459.44 566.36 444.86 551.24 433.16 544.76C429.02 542.42 425.6 541.16 425.6 542.06C425.6 542.78 431.36 549.26 438.38 556.1C450.98 568.52 459.08 581.84 462.32 595.7C463.04 598.76 464.48 604.34 465.74 608.3C467.9 615.5 467.9 615.5 468.44 601.46C468.8 589.58 468.26 585.8 464.48 577.52ZM638 559.7C636.02 551.24 631.52 537.92 628.1 530.36C624.5 522.8 622.34 517.4 623.42 518.3C627.02 522.08 639.8 549.08 640.88 555.2C642.5 565.46 643.22 566.9 645.56 564.56C648.44 561.68 643.94 517.22 639.26 504.98C628.46 475.64 606.68 450.26 578.78 434.42C573.56 431.36 569.6 428.66 569.96 428.12C570.5 427.76 577.16 429.02 585.08 431C625.4 441.26 659.96 460.34 684.8 485.72C699.38 500.66 700.46 495.44 688.4 469.7C679.58 451.16 668.42 438.56 650.06 427.4C631.7 416.06 634.76 415.88 656.54 426.68C679.04 438.02 700.28 453.5 720.98 473.66C738.44 490.58 744.74 494.54 740.24 486.08C735.92 477.98 711.62 451.16 692.9 433.7C677.24 419.3 671.3 414.98 655.64 407.6C636.74 398.42 638.54 397.34 659.42 405.08C671.84 409.76 686.78 417.68 698.66 426.14C702.98 429.2 706.94 431.18 707.48 430.64C709.1 428.84 700.28 416.24 689.3 404.36C678.68 392.84 663.74 382.58 651.86 378.8C648.08 377.72 645.38 376.28 645.74 375.92C647.36 374.3 677.06 384.74 691.1 391.76C710.36 401.48 742.22 422.72 757.7 436.22C778.4 454.4 777.86 449.36 756.44 427.22C735.74 405.8 713.24 388.88 691.64 378.44C681.02 373.4 672.56 368.9 672.92 368.54C673.1 368.18 677.96 369.62 683.54 371.42C689.3 373.4 693.8 374.3 693.8 373.4C693.8 366.92 653.48 345.5 620.36 334.34C609.2 330.56 600.74 327.32 601.82 326.96C605.6 325.7 636.2 332.54 656 339.02C679.94 346.94 700.46 356.84 718.28 369.08C725.12 373.76 733.94 379.88 738.08 382.58C742.04 385.28 750.5 392.12 756.8 397.88C763.28 403.64 768.68 407.24 769.04 405.98C769.94 403.28 758.6 390.68 737.18 370.88C716.66 351.98 704.96 344.06 678.5 330.74C652.22 317.6 661.58 320.3 691.1 334.34C704.42 340.64 720.8 350.36 729.44 356.84C755.18 376.1 753.92 370.52 724.76 335.42C708.92 316.16 691.46 302.84 660.5 286.1C645.02 277.64 620 267.2 614.96 267.2C613.34 267.02 609.56 265.94 606.5 264.5C601.46 261.98 601.82 261.8 613.7 262.88C632.6 264.5 658.52 269.9 676.7 276.2C695.42 282.68 741.5 304.82 752.66 312.74C760.58 318.32 765.62 318.32 759.32 312.56C747.98 302.3 722.96 285.2 705.5 275.84C698.66 272.06 693.98 269 695.42 269C698.48 269 728.9 285.2 742.04 293.84C747.26 297.26 751.94 299.6 752.48 299.06C754.82 296.72 743.12 280.16 730.16 267.56C718.64 256.22 713.42 252.62 693.08 242.9C680.12 236.42 669.86 231.38 670.4 231.2C670.94 231.2 675.8 232.46 681.2 233.9C693.08 237.14 692 236.96 692 234.8C692 233.9 686.96 229.76 680.84 225.8C670.04 218.78 669.86 218.6 675.44 218.6C682.64 218.6 683.36 213.74 676.34 211.94L671.3 210.86L675.8 209.42C678.32 208.7 684.98 206.72 690.74 205.1C696.5 203.48 700.64 201.68 700.28 200.78C699.74 200.06 692.54 197.54 684.44 195.2C676.16 193.04 657.26 187.28 642.14 182.42C600.92 169.28 589.94 167.48 558.98 168.74C544.58 169.46 530.36 170.36 527.3 170.9L521.9 171.8L527.3 170C530.36 168.92 546.56 164.6 563.3 160.28C596.96 151.46 603.8 149.3 603.8 146.96C603.8 144.44 549.8 143 532.88 144.8C518.3 146.6 493.28 152.9 478.88 158.48C470.42 161.72 468.8 160.82 475.46 156.5C487.34 148.76 510.2 129.68 510.2 127.34C510.2 125.72 508.94 125.18 507.14 125.72C505.34 126.08 491.84 129.86 476.9 134C438.38 144.62 412.46 157.4 386.72 178.28C381.32 182.78 377 185.48 377 184.4C377 183.5 378.62 176.48 380.78 168.92C382.76 161.54 384.02 154.7 383.3 154.16C382.76 153.44 379.34 156.68 375.74 161C367.46 171.44 338.84 198.98 328.94 206.18C323 210.32 321.2 210.86 321.2 208.88C321.2 207.26 320.48 206 319.76 206C317.42 206 287.72 236.6 279.62 247.4C271.7 258.02 265.22 269.72 261.98 279.8C259.28 288.62 256.76 308.6 258.38 308.6C259.28 308.6 266.48 295.28 274.4 279.08C282.32 262.88 290.06 248.66 291.5 247.4C292.94 246.32 291.68 249.56 288.8 254.96C279.62 271.34 272.96 297.8 277.82 297.8C278.72 297.8 282.86 291.86 286.82 284.48C290.78 277.1 294.92 270.62 295.82 270.08C296.72 269.54 295.82 274.94 294.02 281.96C292.04 289.34 291.32 295.64 292.22 296.54C294.38 298.7 300.14 290.06 304.82 277.28C308.78 266.48 316.7 251.72 319.4 250.1C320.3 249.56 318.5 253.88 315.62 259.64C309.32 272.42 305.9 287.9 307.52 296.72C308.78 303.2 323.36 324.8 326.6 324.8C328.94 324.8 328.94 324.62 325.7 317.06C324.08 312.92 323 304.82 323 295.64C323 282.86 323.72 279.08 328.4 269.54C334.52 256.4 337.22 254.06 331.64 266.84C329.3 272.06 327.5 280.52 326.96 288.98C326.24 300.86 326.78 303.74 330.92 312.56C333.44 317.96 337.22 323.9 339.2 325.7C342.8 328.94 342.8 328.76 342.8 324.08C342.8 319.4 342.98 319.22 346.76 321.92C351.98 325.7 364.94 325.52 372.14 321.92C375.38 320.3 384.38 313.1 392.12 306.08C406.34 293.48 407.6 293.12 399.32 304.46C395.36 309.68 393.74 314 395.9 314C396.44 314 401.66 311.66 407.6 308.78C422 301.76 434.42 292.58 451.52 276.2L465.74 262.7L454.4 277.64C448.1 285.74 443.6 292.94 444.14 293.66C445.58 294.92 487.7 270.26 494.9 263.6C497.96 261.08 507.14 253.34 515.6 246.68L530.9 234.44L512 252.8C499.4 265.04 494.54 270.8 497.6 269.9C503 268.28 527.84 252.62 544.4 240.74C552.14 235.34 554.66 234.08 551.78 237.14C549.26 239.84 547.82 242.54 548.54 243.08C549.08 243.62 556.46 241.28 564.74 237.68C586.34 228.5 587.42 229.58 567.98 240.74C548.72 251.9 539 259.82 539 264.68C539 267.56 543.32 269 569.78 274.94C586.7 278.72 604.34 283.4 609.02 285.2L617.3 288.62L609.2 287.36C604.7 286.64 594.26 286.1 585.8 286.28C572.84 286.28 569.06 287 560.96 291.32C550.34 296.72 538.1 308.42 522.8 327.5C504.08 350.9 488.42 359 461.78 359C440.18 359 429.92 355.58 417.86 344.6C412.46 339.56 407.42 335.6 406.88 335.6C404.72 335.6 409.76 343.52 417.68 353.06C426.86 363.86 436.76 369.98 451.7 374.3C465.56 378.44 499.58 377.18 519.2 371.96C536.48 367.28 537.92 368.36 521.18 373.4C514.16 375.56 507.86 378.08 507.32 378.98C506.78 379.88 511.46 380.78 517.76 380.78C524.06 380.96 527.12 381.32 524.6 381.86C510.74 383.84 508.4 384.56 508.4 385.82C508.4 386.72 514.34 387.98 521.54 388.7C528.56 389.6 533.42 390.5 532.16 390.86C526.76 392.84 533.06 395 544.04 395L556.1 395.18L548.9 399.14C544.94 401.3 537.92 405.8 533.24 409.22L524.6 415.52L528.56 419.12L532.7 422.9L527.66 423.44C520.1 424.34 522.62 427.4 535.04 432.44C541.16 434.96 545.84 437.3 545.48 437.66C545.12 438.02 539.72 437.12 533.42 435.68C504.26 429.2 500.3 430.64 522.44 439.64C543.32 448.1 546.2 451.34 528.2 445.94C514.7 441.98 508.58 441.26 477.44 440.54C458 440 439.1 440.18 435.5 440.72L428.84 441.98L432.62 446.12C434.78 448.46 441.08 452.42 446.48 455.12C452.06 457.82 456.2 460.34 455.84 460.7C455.66 460.88 451.34 460.52 446.3 459.8C432.44 457.46 412.64 457.64 413.36 459.98C413.72 461.24 425.24 465.74 438.92 470.24C452.42 474.56 463.4 478.52 463.04 478.88C462.68 479.24 455.3 478.34 446.48 476.9C428.84 474.02 382.76 471.14 384.38 473.12C385.64 474.38 435.68 488.06 464.3 494.9C488.42 500.66 514.88 510.38 533.6 520.46C542.06 524.96 551.42 530 554.3 531.44C563.12 535.94 586.16 560.6 596.78 576.62C604.52 588.68 606.68 590.84 607.04 587.78C607.94 581.48 602.54 559.34 596.06 543.5C582.38 509.84 562.76 488.78 526.04 468.8C510.92 460.52 511.1 459.98 526.76 465.92C553.58 475.82 571.94 487.34 590.84 505.52C616.76 530.54 630.44 555.56 638.36 592.1L640.7 602.9L641.24 589.04C641.6 579.68 640.52 569.96 638 559.7ZM806.3 583.1C807.56 573.2 804.14 553.4 799.1 541.52C794.42 530.9 793.88 537.02 798.2 551.06C800.9 559.7 801.98 567.62 801.8 577.7C801.62 585.62 801.62 593.36 801.8 594.8C802.16 600.02 804.86 592.64 806.3 583.1ZM592.46 581.66C581.84 563.84 556.46 538.64 537.38 527.12C497.6 502.82 451.52 491.48 375.92 486.98C349.64 485.36 344.42 485.36 346.58 487.52C347.48 488.42 367.82 491.12 395.9 494C420.02 496.52 462.32 505.16 482.84 511.82C504.26 518.84 529.82 530.54 543.5 539.72C555.2 547.46 580.76 572.66 589.94 585.44C596.78 594.98 598.58 592.28 592.46 581.66ZM496.88 567.44C488.06 551.42 480.5 540.98 478.88 542.78C478.34 543.32 479.78 546.56 482.12 549.98C484.46 553.4 488.96 560.96 492.2 566.9C503.18 587.06 503.9 587.96 504.44 585.08C504.8 583.64 501.38 575.54 496.88 567.44ZM202.4 553.58C204.02 536.48 205.28 530.9 210.5 519.74C225.26 487.7 254.6 462.86 287.9 454.22C305.72 449.54 312.2 450.08 297.8 455.12C291.32 457.28 281.24 461.78 275.3 464.84C262.16 471.86 237.32 490.76 238.04 493.1C239.66 498.86 277.1 487.52 315.8 469.7C350.72 453.32 386.18 439.1 404.9 433.88C421.82 429.2 449.54 425.24 486.08 422.18C498.14 421.28 510.74 419.3 514.16 417.86C526.04 413 527.66 396.8 516.5 393.92C513.98 393.38 493.64 393.2 471.14 393.74C433.52 394.46 428.48 395 412.1 399.32C380.42 407.96 346.04 421.28 340.82 427.04L336.32 432.08L331.64 427.4C326.78 422.36 323.72 421.28 292.4 412.1C259.1 402.56 258.2 401.84 249.92 382.4C244.7 369.98 236.96 357.74 232.28 353.6C228.5 350.72 224.9 353.96 207.62 375.02C193.04 393.02 182.06 414.98 175.76 438.2C169.64 461.06 169.28 499.94 175.04 521.18C179.9 539.54 197.36 576.98 199.88 574.64C200.24 574.28 201.32 564.74 202.4 553.58ZM251.54 511.1C260 509.66 271.7 506.6 277.46 504.62C287 501.02 309.68 488.6 318.32 482.3C325.52 476.9 319.22 477.8 306.08 483.92C291.32 490.58 261.08 499.76 242 503C229.76 505.16 225.8 507.14 225.8 511.28C225.8 514.52 232.1 514.52 251.54 511.1ZM372.5 409.94C396.44 401.3 428.66 392.3 443.24 390.5C455.12 388.88 455.3 385.64 443.78 382.58C438.74 381.32 430.28 377.18 424.7 373.22C402.74 357.92 388.34 353.6 367.28 356.12C348.02 358.64 332 377.36 332 397.16V405.8L322.1 397.7C308.42 386.54 299.06 382.22 286.64 381.14C276.56 380.06 276.2 379.88 276.2 374.84C276.2 364.22 286.28 355.4 298.34 355.4C307.7 355.4 315.8 361.88 320.48 373.4C322.64 378.8 325.16 383.48 326.06 383.66C326.96 384.02 329.3 377.9 331.1 370.16C334.88 353.24 333.26 347.48 323 342.44L316.7 339.38L323.54 339.2C327.14 339.2 330.2 338.48 330.2 337.4C330.2 336.5 325.88 332.9 320.84 329.3C308.42 321.2 291.5 316.88 278.18 318.5C268.64 319.76 251.72 325.34 248.66 328.22C247.94 329.12 249.74 333.62 252.8 338.66C255.86 343.52 258.74 350.72 259.28 354.68L260.18 361.7L257.12 356.3C252.26 347.48 248.84 344.6 243.8 344.6C241.1 344.6 237.86 345.86 236.6 347.3C234.8 349.46 235.34 351.08 240.02 356.3C243.08 359.9 249.38 369.98 253.7 378.8C262.88 397.16 263.96 397.88 288.44 404.9C297.62 407.42 309.32 411.2 314.54 413.36C335.42 421.82 341.54 421.46 372.5 409.94ZM487.16 341.36C502.1 331.46 508.94 309.86 501.92 294.92C497.42 285.56 495.44 284.66 487.88 288.26C480.86 291.5 480.14 294.38 484.1 301.4C488.24 308.78 487.34 315.44 481.58 321.38C477.26 325.52 474.74 326.6 468.08 326.6C461.6 326.6 459.44 325.7 456.38 321.92C454.22 319.22 452.6 315.08 452.6 312.38C452.6 304.46 450.62 303.2 441.8 304.64C434.6 305.9 433.7 306.62 433.16 311.12C432.26 318.68 440.9 334.88 448.64 340.1C454.22 343.88 457.28 344.6 468.8 344.6C478.7 344.6 483.56 343.7 487.16 341.36ZM250.82 301.76C253.34 291.68 253.88 282.5 251.9 281.78C249.56 280.88 245.96 293.12 245.78 302.84C245.6 312.02 248.3 311.48 250.82 301.76Z" fill="url(#paint0_linear_29_19)"/>
<path d="M331.1 447.74C331.82 445.94 332.9 443.06 333.26 441.44C333.8 439.64 335.6 438.2 337.22 438.2C338.84 438.2 349.82 433.88 361.7 428.66C397.16 412.82 429.38 405.08 470.42 402.02C496.88 400.22 510.2 401.3 511.64 405.44C512.9 409.4 503 411.2 461.78 414.8C410.12 419.3 387.98 424.7 348.38 443.06C339.02 447.38 331.1 450.8 330.56 450.8C330.2 450.8 330.38 449.36 331.1 447.74Z" fill="url(#paint1_linear_29_19)"/>
<defs>
<linearGradient id="paint0_linear_29_19" x1="444.5" y1="416.5" x2="1134" y2="796" gradientUnits="userSpaceOnUse">
<stop stop-color="#FCA311"/>
<stop offset="1"/>
</linearGradient>
<linearGradient id="paint1_linear_29_19" x1="1074.5" y1="365.5" x2="373.5" y2="433.5" gradientUnits="userSpaceOnUse">
<stop stop-color="#070606"/>
<stop offset="1" stop-color="#FCA311"/>
</linearGradient>
</defs>
</svg>
